<?xml version="1.0" encoding="UTF-8"?>
<svg version="1.1" xmlns="http://www.w3.org/2000/svg" width="600" height="507">
<path d="M0 0 C198 0 396 0 600 0 C600 167.31 600 334.62 600 507 C402 507 204 507 0 507 C0 339.69 0 172.38 0 0 Z " fill="#EAEBE5" transform="translate(0,0)"/>
<path d="M0 0 C1.02287109 0.27166992 1.02287109 0.27166992 2.06640625 0.54882812 C17.8259201 4.81493856 34.38241917 11.92161278 48 21 C48.29624136 24.15426135 48.39515095 27.11233425 48.36749268 30.2691803 C48.37239594 31.72851342 48.37239594 31.72851342 48.37739825 33.21732801 C48.384718 36.49798687 48.37048452 39.77820588 48.35644531 43.05883789 C48.35723563 45.40230892 48.35933116 47.74577983 48.36264038 50.08924866 C48.36778946 56.46922127 48.35420931 62.84903352 48.33711338 69.2289803 C48.32363741 75.21656235 48.32332831 81.20413945 48.32273683 87.19173329 C48.32104759 99.05469037 48.30521769 110.91758635 48.28125 122.78051758 C48.25798562 134.30363471 48.24382471 145.82671309 48.24023438 157.34985352 C48.24001161 158.05966761 48.23978884 158.76948171 48.23955932 159.50080533 C48.23911674 160.93064423 48.23867471 162.36048313 48.23823325 163.79032203 C48.23801369 164.49557526 48.23779412 165.2008285 48.2375679 165.92745304 C48.23724392 166.98258508 48.23724392 166.98258508 48.2369134 168.05903292 C48.23299285 179.68654806 48.22029222 191.31405555 48.20722103 202.94156337 C48.20311419 206.92063227 48.20019256 210.89970079 48.19742584 214.87877083 C48.19254668 221.11917409 48.18236679 227.35954715 48.16798782 233.59993553 C48.16344996 235.89740857 48.16062267 238.19488569 48.15958023 240.49236298 C48.15784528 243.61420717 48.14999101 246.73597475 48.14044189 249.85780334 C48.14130838 250.77957196 48.14217486 251.70134057 48.1430676 252.65104157 C48.11420713 258.88579287 48.11420713 258.88579287 47 260 C35.27616447 260.9018335 21.36968984 257.23466626 11.76171875 250.41015625 C9.13982891 246.82322491 8.90250243 243.21675077 8.375 238.875 C8.15585913 237.24709636 7.93449667 235.61949027 7.7109375 233.9921875 C7.60031982 233.16734863 7.48970215 232.34250977 7.37573242 231.49267578 C7.0042384 229.02811828 6.52737263 226.61000239 6.01171875 224.171875 C4.79722144 218.2796116 4.10511906 212.35056464 3.4375 206.375 C3.30819092 205.22563965 3.17888184 204.0762793 3.0456543 202.89208984 C2.09695734 194.26459238 1.28301279 185.67905894 1 177 C0.97276855 176.17177734 0.94553711 175.34355469 0.91748047 174.49023438 C0.83950483 171.78511726 0.78992997 169.08092917 0.75 166.375 C0.71773315 165.11163818 0.71773315 165.11163818 0.68481445 163.82275391 C0.65061549 157.41528691 1.99622066 153.33774257 6.25 148.375 C9 146 9 146 12.375 144.1875 C20.3512226 139.82577479 24.48914878 132.49978052 27 124 C27.54103471 120.35364068 27.56890992 116.80632132 27.5 113.125 C27.49154053 112.07924805 27.48308105 111.03349609 27.47436523 109.95605469 C27.18468927 96.27549333 25.3804125 82.69859462 23.70999146 69.13241577 C22.940397 62.76923805 22.41806443 56.39589723 22 50 C20.05396726 49.40929986 20.05396726 49.40929986 18 49 C16.42532796 50.57467204 16.75336968 52.23239038 16.62695312 54.42114258 C16.57019409 55.36335159 16.51343506 56.30556061 16.45495605 57.27632141 C16.39763306 58.30533066 16.34031006 59.3343399 16.28125 60.39453125 C16.18704773 61.98112801 16.18704773 61.98112801 16.09094238 63.59977722 C15.8895706 67.00377696 15.69450959 70.40810183 15.5 73.8125 C15.3043998 77.17754782 15.10745346 80.54251026 14.90905762 83.90739441 C14.78584508 86.00324248 14.66439233 88.09919506 14.54504395 90.19526672 C14.14149137 97.14083179 13.60725972 104.06933711 13 111 C11.35 110.67 9.7 110.34 8 110 C7.91959473 108.86272461 7.83918945 107.72544922 7.75634766 106.55371094 C7.4498406 102.22944512 7.13948905 97.90546154 6.828125 93.58154297 C6.69528219 91.7297269 6.56340642 89.87784114 6.43261719 88.02587891 C5.51117529 74.99102011 4.36915652 61.99556262 3 49 C1.68 49.33 0.36 49.66 -1 50 C-1.41209595 55.20605501 -1.82083797 60.41236008 -2.22680664 65.61889648 C-2.36461339 67.38068312 -2.5032513 69.14240499 -2.64282227 70.90405273 C-3.46385686 81.27517207 -4.20380155 91.63707701 -4.63609314 102.03279114 C-4.78228596 105.23729498 -4.97982517 107.9394755 -6 111 C-7.65 110.67 -9.3 110.34 -11 110 C-12.29594495 99.10399679 -13.19176714 88.28106911 -13.60302734 77.31542969 C-13.98765364 67.83246005 -14.9466585 58.42894043 -16 49 C-17.65 49 -19.3 49 -21 49 C-21.07516846 50.75920776 -21.07516846 50.75920776 -21.15185547 52.55395508 C-21.34354433 57.00311967 -21.54304424 61.4519085 -21.74462891 65.90063477 C-21.83001588 67.80777049 -21.91342411 69.71499608 -21.99462891 71.62231445 C-22.54382857 84.48104474 -23.49329634 97.21705223 -25 110 C-26.9375 110.5625 -26.9375 110.5625 -29 111 C-30.70411395 109.29588605 -30.31123411 107.03844917 -30.46484375 104.70166016 C-30.58001343 103.00452377 -30.58001343 103.00452377 -30.69750977 101.27310181 C-30.77670654 100.04086884 -30.85590332 98.80863586 -30.9375 97.5390625 C-31.02249756 96.28241791 -31.10749512 95.02577332 -31.19506836 93.73104858 C-31.46775609 89.69597754 -31.7345614 85.66055232 -32 81.625 C-32.26547241 77.59659377 -32.53286325 73.56834223 -32.80493164 69.54037476 C-32.97455486 67.02876538 -33.14050213 64.51690462 -33.30249023 62.00479126 C-33.41765991 60.29819839 -33.41765991 60.29819839 -33.53515625 58.55712891 C-33.63389038 57.05274765 -33.63389038 57.05274765 -33.73461914 55.51797485 C-33.92179789 52.87618865 -33.92179789 52.87618865 -35 50 C-36.32 50 -37.64 50 -39 50 C-40.14651857 58.99404858 -41.13454852 67.93431612 -41.60302734 76.99194336 C-41.8282621 81.02895679 -42.2320136 84.99614179 -42.78295898 89.0012207 C-45.1501498 106.45641026 -46.67724062 123.03253668 -36.875 138.3125 C-33.42071365 141.54150681 -29.7056258 143.82906247 -25.62109375 146.19140625 C-21.46444014 149.05955919 -18.94917539 152.02919724 -18 157 C-16.43409606 179.21741353 -19.05291716 202.15947498 -23 224 C-24.67578125 224.796875 -24.67578125 224.796875 -27 225 C-29.48046875 223.078125 -29.48046875 223.078125 -32.1875 220.25 C-32.67234863 219.74484863 -33.15719727 219.23969727 -33.65673828 218.71923828 C-38.39842522 213.71300038 -42.76004262 208.43584279 -47 203 C-47.48726562 202.38382813 -47.97453125 201.76765625 -48.4765625 201.1328125 C-56.63207529 190.80785296 -64.10832346 180.20798401 -71 169 C-71.36963867 168.40654785 -71.73927734 167.8130957 -72.12011719 167.20166016 C-77.83488348 157.96059338 -82.04669385 148.3211494 -86.08154297 138.26171875 C-86.91344686 136.21313884 -87.77733312 134.18327591 -88.66015625 132.15625 C-92.96291388 122.0321144 -95.56376583 111.70234974 -98 101 C-98.16951172 100.29198242 -98.33902344 99.58396484 -98.51367188 98.85449219 C-103.92150966 75.76071021 -105.71621237 49.7198111 -94.6875 28 C-84.71951504 12.13196163 -71.35163405 1.6165407 -53.5 -4 C-35.56390442 -7.68915633 -17.40082105 -4.70632158 0 0 Z " fill="#48A0C2" transform="translate(253,69)"/>
<path d="M0 0 C1.69842041 -0.02090698 1.69842041 -0.02090698 3.43115234 -0.04223633 C21.9630129 0.06151191 39.11077122 7.55314816 52.75 20.0625 C59.95621831 27.82661909 65.18775099 38.04723777 67.375 48.375 C67.57738281 49.22578125 67.77976562 50.0765625 67.98828125 50.953125 C72.38637067 72.37511156 68.26289834 94.28499984 62.95361328 115.10351562 C62.47628703 116.97737361 62.01523581 118.85536938 61.55859375 120.734375 C59.82562147 127.58704254 57.23430787 133.92032481 54.375 140.375 C54.04693359 141.12523437 53.71886719 141.87546875 53.38085938 142.6484375 C48.79230788 153.13183082 44.10118489 163.45480667 38.375 173.375 C37.79621094 174.38046875 37.21742188 175.3859375 36.62109375 176.421875 C28.02080125 190.85743903 17.92075166 204.23176302 6.77539062 216.78637695 C4.7403225 219.09498718 2.74476115 221.43681504 0.74829102 223.77880859 C-1.27774727 226.13369541 -3.27687511 228.33583891 -5.625 230.375 C-6.945 230.375 -8.265 230.375 -9.625 230.375 C-13.06148367 215.84338253 -14.41280344 201.24322005 -15.47808838 186.38079834 C-15.61937066 184.45185798 -15.77496616 182.52398223 -15.93115234 180.59619141 C-17.34807662 161.69096319 -17.34807662 161.69096319 -13.4453125 156.4453125 C-10.625 154.5 -10.625 154.5 -7.59375 152.98828125 C-2.42633431 150.18019877 0.28818785 145.2454654 3.375 140.375 C3.89707031 139.56289062 4.41914063 138.75078125 4.95703125 137.9140625 C10.62940749 127.75691496 10.78906491 116.6803847 10.875 105.3125 C10.89328857 104.05896729 10.91157715 102.80543457 10.93041992 101.51391602 C10.85260317 89.48375984 8.063517 78.93938871 2.375 68.375 C2.375 67.715 2.375 67.055 2.375 66.375 C1.715 66.375 1.055 66.375 0.375 66.375 C-0.2128125 65.323125 -0.2128125 65.323125 -0.8125 64.25 C-4.88507304 57.79005655 -11.2745558 53.38586341 -18.625 51.375 C-27.95849547 50.2919738 -34.44758943 51.994361 -42.125 57.375 C-53.98357852 66.94685604 -57.55784675 81.35054657 -59.35693359 95.765625 C-61.32650302 114.93753576 -59.39443006 132.44736222 -47.625 148.375 C-44.28022118 151.94665335 -40.95242648 154.74020752 -36.52661133 156.85668945 C-33.625 159.375 -33.625 159.375 -33.10179138 161.38607788 C-32.94531207 164.00358365 -32.99110758 166.54825984 -33.109375 169.16796875 C-33.14427032 170.62652534 -33.14427032 170.62652534 -33.17987061 172.11454773 C-33.52176152 183.02081317 -34.63414546 193.85292373 -35.875 204.6875 C-36.10550567 206.75496008 -36.33597409 208.82242431 -36.56640625 210.88989258 C-37.22448835 216.72173953 -37.91583349 222.54916193 -38.625 228.375 C-38.71885986 229.15113647 -38.81271973 229.92727295 -38.90942383 230.72692871 C-39.43249226 235.01314365 -40.00522293 239.28924849 -40.625 243.5625 C-40.81884277 245.02780151 -40.81884277 245.02780151 -41.01660156 246.52270508 C-41.62898042 250.37138545 -42.08816049 252.73163635 -44.61328125 255.7578125 C-48.86777926 258.04232894 -53.22530847 259.57869386 -57.8125 261.0625 C-58.70775391 261.36994141 -59.60300781 261.67738281 -60.52539062 261.99414062 C-66.46391111 263.953638 -72.33454056 265.35968298 -78.625 265.375 C-80.55234261 263.44765739 -79.74796152 260.55557392 -79.75408131 257.99054426 C-79.75116847 257.06352046 -79.74825563 256.13649666 -79.74525452 255.18138123 C-79.74610894 254.20455779 -79.74696337 253.22773435 -79.74784368 252.2213102 C-79.74950145 248.92152911 -79.74397228 245.62179795 -79.73852539 242.32202148 C-79.73824356 239.96722413 -79.73840118 237.61242669 -79.7389679 235.25762939 C-79.73925602 228.84259631 -79.73335691 222.42758174 -79.72639394 216.01255298 C-79.72031949 209.99436854 -79.71977212 203.97618191 -79.71874207 197.95799495 C-79.71655123 186.0345745 -79.7098903 174.11116088 -79.70043945 162.18774414 C-79.69126615 150.60245803 -79.68418492 139.01717377 -79.67993164 127.43188477 C-79.67966892 126.71825555 -79.67940619 126.00462633 -79.67913551 125.26937198 C-79.67783051 121.6894496 -79.67656679 118.1095272 -79.67532361 114.52960479 C-79.66495002 84.81139867 -79.64725673 55.09319966 -79.625 25.375 C-76.80686823 23.78151907 -73.98393822 22.19672466 -71.16015625 20.61328125 C-70.37338501 20.16827271 -69.58661377 19.72326416 -68.77600098 19.26477051 C-56.36502352 12.32163318 -43.29366266 7.51422609 -29.56396484 3.89501953 C-27.83164289 3.43042047 -26.11191733 2.91942855 -24.39453125 2.40234375 C-16.2929532 0.23856825 -8.35290128 0.06614928 0 0 Z " fill="#5E9248" transform="translate(392.625,63.625)"/>
<path d="M0 0 C7.35543748 3.52074294 11.62409043 9.79669143 15 17 C15.62068359 18.29550781 15.62068359 18.29550781 16.25390625 19.6171875 C21.52349238 33.16755182 21.5712371 52.73927195 16.328125 66.30859375 C12.43397148 74.19998133 8.74450134 80.53201846 1 85 C-4.0027959 86.66759863 -9.15840044 87.11910545 -14.15234375 85.15234375 C-22.54522928 79.71774263 -28.40523902 67.84127171 -30.60546875 58.31640625 C-32.70688299 40.65204302 -31.35423883 21.79466136 -20.61328125 6.94921875 C-14.90892075 0.05702531 -8.93052568 -1.79075645 0 0 Z " fill="#274E67" transform="translate(374,126)"/>
<path d="M0 0 C2.42127764 -0.0828317 4.83970928 -0.14347749 7.26171875 -0.19140625 C7.94520386 -0.21706665 8.62868896 -0.24272705 9.33288574 -0.26916504 C12.47370526 -0.31581559 14.58054021 -0.25662436 17.29296875 1.40283203 C19.17590654 3.45942122 20.55038148 5.61625975 22 8 C23.09108592 9.60525256 24.18239344 11.21035726 25.27661133 12.81347656 C26.54561463 14.69254352 27.78601808 16.58828273 29.0234375 18.48828125 C31.29356622 21.95693006 33.62384823 25.37980558 35.9765625 28.79296875 C36.66169922 29.78796387 37.34683594 30.78295898 38.05273438 31.80810547 C39.42320796 33.79503382 40.79685724 35.77977587 42.17382812 37.76220703 C42.79966797 38.67212402 43.42550781 39.58204102 44.0703125 40.51953125 C44.63508301 41.33526611 45.19985352 42.15100098 45.78173828 42.99145508 C47 45 47 45 47 47 C47.66 47 48.32 47 49 47 C49 31.49 49 15.98 49 0 C53.95 0 58.9 0 64 0 C64.02255176 9.89189783 64.04091552 19.7837787 64.05181217 29.67569637 C64.05704082 34.2684264 64.06413812 38.861138 64.07543945 43.45385742 C64.086269 47.88233688 64.09227698 52.31079856 64.09487724 56.73929024 C64.09673137 58.43265628 64.10035175 60.12602129 64.10573006 61.81937981 C64.1129414 64.18291232 64.1139909 66.54637045 64.11352539 68.90991211 C64.11712067 69.61697296 64.12071594 70.32403381 64.12442017 71.05252075 C64.11405216 75.88594784 64.11405216 75.88594784 63 77 C53.01108991 78.36706701 53.01108991 78.36706701 49.01171875 75.6484375 C47.46479041 73.83369469 46.2347735 72.04038793 45 70 C42.0013349 65.47010166 38.95065933 60.97777395 35.875 56.5 C35.39925537 55.80729004 34.92351074 55.11458008 34.43334961 54.40087891 C30.79719167 49.12252694 27.09952724 43.89110535 23.34912109 38.69335938 C20.81447367 35.17414414 18.40908882 31.61363324 16 28 C15.67 43.84 15.34 59.68 15 76 C12.25494537 77.37252731 9.99672588 77.13229255 6.9375 77.125 C5.31134766 77.12886719 5.31134766 77.12886719 3.65234375 77.1328125 C1 77 1 77 0 76 C-0.09494733 73.62699131 -0.12559319 71.28321297 -0.11352539 68.90991211 C-0.11367142 68.16849472 -0.11381744 67.42707733 -0.1139679 66.66319275 C-0.11326865 64.20121379 -0.10547574 61.73930957 -0.09765625 59.27734375 C-0.09579211 57.57483461 -0.09436819 55.87232493 -0.09336853 54.16981506 C-0.08954302 49.68006927 -0.07971247 45.19035562 -0.06866455 40.70062256 C-0.05845113 36.12268509 -0.05387106 31.54474244 -0.04882812 26.96679688 C-0.03809022 17.97785043 -0.02101341 8.98892788 0 0 Z " fill="#294D65" transform="translate(45,372)"/>
<path d="M0 0 C2.77330835 2.14099405 4.41185295 3.67560664 5.578125 7.0078125 C4.21318426 10.90764318 1.32152575 13.55152266 -2.296875 15.5078125 C-5.82477561 15.2425029 -8.35802462 13.29521386 -11.296875 11.4453125 C-17.9482151 7.74617148 -24.04951639 7.24153949 -31.43359375 9.0234375 C-37.6688037 11.3498065 -41.82248295 16.17253201 -44.5703125 22.0703125 C-46.62114787 28.95053438 -46.30216278 37.15217344 -43.33984375 43.73046875 C-40.16949756 49.13311863 -36.40848949 53.61876802 -30.296875 55.5078125 C-23.0309929 56.17432106 -16.65875038 56.27300405 -10.296875 52.5078125 C-9.2209919 51.60689098 -8.15833993 50.68993728 -7.109375 49.7578125 C-4.296875 47.5078125 -4.296875 47.5078125 -2.328125 47.6953125 C-0.07667262 48.59589345 1.27225385 49.5793311 3.015625 51.2578125 C3.54800781 51.74765625 4.08039063 52.2375 4.62890625 52.7421875 C5.703125 54.5078125 5.703125 54.5078125 5.5859375 56.98828125 C3.74600248 62.23942324 -1.07032384 65.39952919 -5.91015625 67.80859375 C-16.98238752 72.31950278 -28.46399346 73.56874447 -39.765625 68.83203125 C-50.70698613 63.10807844 -57.25061154 54.65709763 -61.37890625 43.140625 C-63.9790041 32.85087605 -63.3809533 21.95609961 -58.296875 12.5078125 C-52.79270261 3.7290059 -45.43293124 -2.81364792 -35.296875 -5.4921875 C-22.44316193 -8.02343546 -11.11327048 -7.21984579 0 0 Z " fill="#2A4E66" transform="translate(337.296875,378.4921875)"/>
<path d="M0 0 C5.71879633 4.32002252 9.19886926 8.53607947 10.34765625 15.7734375 C10.34765625 20.3934375 10.34765625 25.0134375 10.34765625 29.7734375 C-2.52234375 29.7734375 -15.39234375 29.7734375 -28.65234375 29.7734375 C-25.53664511 37.37714349 -25.53664511 37.37714349 -19.65234375 40.7734375 C-13.79042519 41.66058609 -9.56501845 40.72236044 -4.4765625 37.74609375 C-2.44869529 36.66485406 -0.95059944 35.98847897 1.34765625 35.7734375 C3.26953125 36.98828125 3.26953125 36.98828125 5.09765625 38.7109375 C5.71125 39.27683594 6.32484375 39.84273438 6.95703125 40.42578125 C7.64539063 41.09287109 7.64539063 41.09287109 8.34765625 41.7734375 C7.79076409 45.30550693 6.74580732 46.69636174 3.91015625 48.8359375 C-3.81651134 54.26660244 -12.33594689 55.78213009 -21.65234375 54.7734375 C-28.55449034 53.29704251 -35.09746994 49.382601 -39.1953125 43.59375 C-43.99993539 35.22440691 -45.87455948 27.42021163 -44.65234375 17.7734375 C-41.74362548 8.83340635 -36.8575872 2.52356289 -28.85546875 -2.3125 C-19.4688409 -6.68490357 -8.55879948 -5.36973281 0 0 Z " fill="#2C4F67" transform="translate(448.65234375,395.2265625)"/>
<path d="M0 0 C1.1859375 0.00257813 2.371875 0.00515625 3.59375 0.0078125 C4.7796875 0.00523437 5.965625 0.00265625 7.1875 0 C10.09375 0.1328125 10.09375 0.1328125 11.09375 1.1328125 C11.25161308 2.98455956 11.34482356 4.8419036 11.41015625 6.69921875 C11.47299805 8.3862793 11.47299805 8.3862793 11.53710938 10.10742188 C11.57642578 11.29142578 11.61574219 12.47542969 11.65625 13.6953125 C11.69943359 14.88318359 11.74261719 16.07105469 11.78710938 17.29492188 C11.89358546 20.24076034 11.99559841 23.1866868 12.09375 26.1328125 C12.83492065 25.60010742 12.83492065 25.60010742 13.59106445 25.05664062 C18.26942222 21.88396761 21.47452263 20.4781383 27.28125 20.6328125 C29.03501953 20.64828125 29.03501953 20.64828125 30.82421875 20.6640625 C34.33137524 21.16688064 36.22131004 22.11406973 39.09375 24.1328125 C40.3621875 24.9371875 40.3621875 24.9371875 41.65625 25.7578125 C46.12475458 30.11174004 48.26457156 35.69057655 48.5637207 41.90234375 C48.56974071 43.58338709 48.55426272 45.26461721 48.51953125 46.9453125 C48.51624313 47.84024414 48.51295502 48.73517578 48.50956726 49.65722656 C48.49922217 51.52953479 48.479403 53.401813 48.45043945 55.27392578 C48.40594033 58.15284669 48.38893156 61.03093223 48.37695312 63.91015625 C48.36354496 65.73438718 48.34862641 67.55860778 48.33203125 69.3828125 C48.32464432 70.24624268 48.31725739 71.10967285 48.30964661 71.99926758 C48.21213049 78.01443201 48.21213049 78.01443201 47.09375 79.1328125 C45.11755553 79.25796178 43.13636827 79.3085401 41.15625 79.3203125 C40.07472656 79.33449219 38.99320312 79.34867187 37.87890625 79.36328125 C35.09375 79.1328125 35.09375 79.1328125 33.09375 77.1328125 C32.90900531 74.46973952 32.84100899 71.90160775 32.85546875 69.23828125 C32.84004545 67.62694474 32.82374155 66.01561646 32.80664062 64.40429688 C32.79020094 61.86301537 32.78124436 59.32233604 32.78833008 56.78100586 C32.79095453 54.32857171 32.76279528 51.87797036 32.73046875 49.42578125 C32.74067551 48.67040573 32.75088226 47.91503021 32.76139832 47.13676453 C32.68707163 43.11310558 32.25254067 41.32999497 29.6965332 38.15600586 C26.27453259 35.49601908 24.43445085 35.41270962 20.25 35.62890625 C16.8314646 36.42780311 15.19634549 38.43886202 13.09375 41.1328125 C12.76375 41.4628125 12.43375 41.7928125 12.09375 42.1328125 C11.94604385 44.78543217 11.85875765 47.41537057 11.8125 50.0703125 C11.79409058 50.8655835 11.77568115 51.66085449 11.75671387 52.48022461 C11.69778029 55.03100985 11.64503742 57.58186272 11.59375 60.1328125 C11.52631073 63.48712835 11.45264262 66.84121908 11.375 70.1953125 C11.36142456 70.97447021 11.34784912 71.75362793 11.3338623 72.55639648 C11.20655181 78.02001069 11.20655181 78.02001069 10.09375 79.1328125 C7.92894203 79.2317419 5.76081215 79.2625235 3.59375 79.2578125 C2.4078125 79.26039063 1.221875 79.26296875 0 79.265625 C-2.90625 79.1328125 -2.90625 79.1328125 -3.90625 78.1328125 C-4.00652795 75.73472101 -4.04243676 73.36541752 -4.03564453 70.96679688 C-4.03739685 70.21723221 -4.03914917 69.46766754 -4.04095459 68.69538879 C-4.0453732 66.20575681 -4.0424351 63.71619527 -4.0390625 61.2265625 C-4.03973554 59.50402818 -4.04070556 57.78149395 -4.04196167 56.05895996 C-4.04343865 52.44408262 -4.04128407 48.82922995 -4.03662109 45.21435547 C-4.0309238 40.57014757 -4.0342028 35.92599746 -4.04019356 31.28179169 C-4.04379916 27.72344524 -4.04266059 24.1651126 -4.04006577 20.60676575 C-4.03939649 18.89386488 -4.04022493 17.18096278 -4.04254532 15.46806335 C-4.04507183 13.07828428 -4.0412313 10.68860009 -4.03564453 8.29882812 C-4.03766876 7.58398758 -4.03969299 6.86914703 -4.04177856 6.13264465 C-4.01588326 0.18352155 -4.01588326 0.18352155 0 0 Z " fill="#2A4F67" transform="translate(350.90625,369.8671875)"/>
<path d="M0 0 C1.093125 0.00257813 2.18625 0.00515625 3.3125 0.0078125 C4.405625 0.00523437 5.49875 0.00265625 6.625 0 C9.3125 0.1328125 9.3125 0.1328125 10.3125 1.1328125 C10.40124135 4.23532451 10.42768455 7.3154937 10.41015625 10.41796875 C10.4087413 11.34878769 10.40732635 12.27960663 10.40586853 13.2386322 C10.40025172 16.22422441 10.3876964 19.20974279 10.375 22.1953125 C10.36998716 24.21419163 10.36542388 26.23307193 10.36132812 28.25195312 C10.35027683 33.21226822 10.33300095 38.17252782 10.3125 43.1328125 C10.9725 43.1328125 11.6325 43.1328125 12.3125 43.1328125 C12.58126953 42.54185791 12.85003906 41.95090332 13.12695312 41.34204102 C14.31544882 39.12731746 15.55226757 37.59722173 17.28125 35.78515625 C18.13783203 34.87733398 18.13783203 34.87733398 19.01171875 33.95117188 C19.60597656 33.33048828 20.20023438 32.70980469 20.8125 32.0703125 C21.99148183 30.83123073 23.16863873 29.59040936 24.34375 28.34765625 C24.86517578 27.80230225 25.38660156 27.25694824 25.92382812 26.69506836 C27.51849134 24.97353786 27.51849134 24.97353786 29.3125 22.1328125 C32.26314148 21.9119561 34.99618231 21.85220261 37.9375 21.9453125 C39.14019531 21.96561523 39.14019531 21.96561523 40.3671875 21.98632812 C42.34924378 22.02172199 44.33095551 22.07553016 46.3125 22.1328125 C45.57789123 25.4245392 44.73129717 27.13048832 42.4375 29.6328125 C41.82132813 30.31859375 41.20515625 31.004375 40.5703125 31.7109375 C38.85292808 33.55311456 37.11889124 35.37067978 35.3671875 37.1796875 C34.86300293 37.70884766 34.35881836 38.23800781 33.83935547 38.78320312 C32.83118091 39.8394167 31.81207331 40.88531433 30.78173828 41.91992188 C29.18634706 43.54044382 29.18634706 43.54044382 27.3125 46.1328125 C27.82971263 50.50056543 30.62667495 53.39252227 33.3125 56.6953125 C33.80073242 57.30938965 34.28896484 57.9234668 34.79199219 58.55615234 C37.16974579 61.53490207 39.58628297 64.4714591 42.078125 67.35546875 C42.89796875 68.31324219 43.7178125 69.27101563 44.5625 70.2578125 C45.31015625 71.10601562 46.0578125 71.95421875 46.828125 72.828125 C48.3125 75.1328125 48.3125 75.1328125 48.046875 77.4375 C47.80453125 77.99695313 47.5621875 78.55640625 47.3125 79.1328125 C42.23110423 80.14487473 37.27034506 80.90172121 32.3125 79.1328125 C27.46007439 75.36237144 23.99254902 70.1255997 20.60839844 65.05566406 C19.24171811 63.02778647 17.7931703 61.07855821 16.3125 59.1328125 C14.6625 59.7928125 13.0125 60.4528125 11.3125 61.1328125 C11.25191406 62.34839844 11.19132813 63.56398438 11.12890625 64.81640625 C11.04451668 66.40105478 10.9598679 67.98568952 10.875 69.5703125 C10.81602539 70.77397461 10.81602539 70.77397461 10.75585938 72.00195312 C10.42578125 78.01953125 10.42578125 78.01953125 9.3125 79.1328125 C7.12610547 79.20540196 4.93749611 79.21655033 2.75 79.1953125 C1.55246094 79.18628906 0.35492187 79.17726563 -0.87890625 79.16796875 C-2.26916016 79.15056641 -2.26916016 79.15056641 -3.6875 79.1328125 C-3.71062392 68.98015099 -3.72841534 58.8274957 -3.73931217 48.67481327 C-3.74454089 43.96101517 -3.75163834 39.24723503 -3.76293945 34.53344727 C-3.77376873 29.98825846 -3.77977692 25.44308698 -3.78237724 20.89788628 C-3.78423142 19.15986292 -3.78785189 17.42184056 -3.79323006 15.68382454 C-3.80044103 13.25802655 -3.80149092 10.83230104 -3.80102539 8.40649414 C-3.80462067 7.68073181 -3.80821594 6.95496948 -3.81192017 6.20721436 C-3.79933844 0.187758 -3.79933844 0.187758 0 0 Z " fill="#2B4F67" transform="translate(522.6875,369.8671875)"/>
<path d="M0 0 C4.62 0 9.24 0 14 0 C14.33 13.2 14.66 26.4 15 40 C16.485 40.495 16.485 40.495 18 41 C18 41.66 18 42.32 18 43 C24.79588663 42.75795367 24.79588663 42.75795367 31 40.25 C35.00830034 35.74066212 35.31723598 31.12733651 35.4140625 25.29296875 C35.43342865 24.56757401 35.4527948 23.84217926 35.4727478 23.09480286 C35.53222108 20.79248578 35.57879845 18.49011781 35.625 16.1875 C35.66320958 14.62042168 35.70226303 13.05336369 35.7421875 11.48632812 C35.83947495 7.65766175 35.91929594 3.8291951 36 0 C40.95 0 45.9 0 51 0 C51.02255606 7.28421977 51.04091801 14.56842059 51.05181217 21.85266781 C51.05703975 25.23471813 51.06413511 28.6167434 51.07543945 31.9987793 C51.08834267 35.88329777 51.09322924 39.76780597 51.09765625 43.65234375 C51.10281754 44.87211411 51.10797882 46.09188446 51.11329651 47.34861755 C51.11337204 48.46970413 51.11344757 49.59079071 51.11352539 50.74584961 C51.115746 51.73846298 51.11796661 52.73107635 51.12025452 53.75376892 C51 56 51 56 50 57 C48.00200428 57.09873816 46.00042842 57.12971799 44 57.125 C42.906875 57.12757813 41.81375 57.13015625 40.6875 57.1328125 C38 57 38 57 37 56 C36.95936168 54.33382885 36.957279 52.66611905 37 51 C36.34 51 35.68 51 35 51 C35 51.66 35 52.32 35 53 C28.49943667 56.87533583 23.77461565 58.8153155 16 58 C9.49414478 55.79462535 4.90677604 53.11527677 1.75 46.9375 C-0.7485521 41.60247686 -1.14699124 37.05589408 -1.1328125 31.2109375 C-1.13376923 30.35190826 -1.13472595 29.49287903 -1.13571167 28.6078186 C-1.1363918 26.79388353 -1.13454918 24.97994601 -1.13037109 23.16601562 C-1.12500741 20.37885121 -1.13032844 17.59184699 -1.13671875 14.8046875 C-1.1360582 13.04427048 -1.1347775 11.28385355 -1.1328125 9.5234375 C-1.13483673 8.68493256 -1.13686096 7.84642761 -1.13894653 6.98251343 C-1.11495917 1.11495917 -1.11495917 1.11495917 0 0 Z " fill="#2B5067" transform="translate(118,392)"/>
<path d="M0 0 C4.222721 2.61092348 7.90523132 6.03394242 11.5 9.4375 C11.10824727 11.87681365 10.7627764 13.16920598 9.01171875 14.95703125 C8.40972656 15.38371094 7.80773437 15.81039063 7.1875 16.25 C6.59324219 16.68957031 5.99898438 17.12914062 5.38671875 17.58203125 C3.5 18.4375 3.5 18.4375 1.46484375 18.203125 C-0.5 17.4375 -0.5 17.4375 -3.625 15.375 C-8.08507426 12.75086148 -12.4559855 12.5982582 -17.5 13.4375 C-21.85511465 15.84671236 -23.83241537 18.78581656 -25.5 23.4375 C-26.54221921 29.61064457 -25.34803011 33.66340119 -21.88671875 38.80859375 C-19.85070658 41.20019114 -18.13253047 42.35210342 -15.01171875 42.7734375 C-8.84775411 42.85869289 -5.46097516 42.43048 -0.5 38.4375 C1.42578125 37.625 1.42578125 37.625 3.5 37.4375 C5.421875 38.65234375 5.421875 38.65234375 7.25 40.375 C7.86359375 40.94089844 8.4771875 41.50679688 9.109375 42.08984375 C9.79773438 42.75693359 9.79773438 42.75693359 10.5 43.4375 C10.5 46.28869592 9.9746288 47.9531849 7.96875 50 C0.42348171 55.98830817 -6.97627703 58.05759784 -16.5703125 57.7890625 C-24.98522201 56.77927336 -31.4935486 52.2170389 -36.6875 45.6875 C-41.21864324 37.56269143 -42.70885334 29.74680052 -41.5 20.4375 C-40.27496181 16.76742674 -38.62296198 13.66299472 -36.5 10.4375 C-36.11585938 9.85226562 -35.73171875 9.26703125 -35.3359375 8.6640625 C-27.72168892 -1.54006655 -11.63032342 -5.45389916 0 0 Z " fill="#2A4E66" transform="translate(503.5,392.5625)"/>
<path d="M0 0 C4.62 0 9.24 0 14 0 C14 5.28 14 10.56 14 16 C17.96 16 21.92 16 26 16 C26 20.29 26 24.58 26 29 C22.37 29 18.74 29 15 29 C15.11837128 32.93289545 15.24262793 36.86555666 15.37231445 40.7980957 C15.43687006 42.79303319 15.4967783 44.78811929 15.55664062 46.78320312 C15.59853516 48.03681641 15.64042969 49.29042969 15.68359375 50.58203125 C15.72025146 51.73936768 15.75690918 52.8967041 15.79467773 54.08911133 C15.88328509 57.0643446 15.88328509 57.0643446 17 60 C19.97 60 22.94 60 26 60 C26.02686553 61.97909398 26.04633375 63.95828971 26.0625 65.9375 C26.07410156 67.03964844 26.08570313 68.14179688 26.09765625 69.27734375 C26 72 26 72 25 73 C22.58646168 73.18153617 20.22875181 73.27814571 17.8125 73.3125 C16.49894531 73.34988281 15.18539062 73.38726562 13.83203125 73.42578125 C9.3254406 72.92504896 7.39883113 71.97578001 4 69 C0.55883558 63.94247775 -0.57610094 60.25803603 -0.390625 54.09765625 C-0.38496521 53.3750914 -0.37930542 52.65252655 -0.37347412 51.9080658 C-0.35128257 49.62550414 -0.30112549 47.34457802 -0.25 45.0625 C-0.22991244 43.50458014 -0.21166564 41.9466354 -0.1953125 40.38867188 C-0.1514753 36.5918285 -0.08257421 32.79619043 0 29 C-1.299375 29.020625 -2.59875 29.04125 -3.9375 29.0625 C-5.29165633 29.08399454 -6.64756083 29.07148199 -8 29 C-9 28 -9 28 -9.09765625 25.27734375 C-9.08605469 24.17519531 -9.07445312 23.07304687 -9.0625 21.9375 C-9.05347656 20.83277344 -9.04445312 19.72804688 -9.03515625 18.58984375 C-9.02355469 17.73519531 -9.01195312 16.88054687 -9 16 C-6.03 16 -3.06 16 0 16 C0 10.72 0 5.44 0 0 Z " fill="#2C4F66" transform="translate(182,376)"/>
<path d="M0 0 C0.33 0 0.66 0 1 0 C1 25.41 1 50.82 1 77 C-2.96 76.34 -6.92 75.68 -11 75 C-9.7934375 73.9171875 -9.7934375 73.9171875 -8.5625 72.8125 C-5.97707928 69.97484311 -5.31957187 68.72833853 -5 65 C-8.48888783 61.36049137 -8.48888783 61.36049137 -13 59.9375 C-15.19011795 61.02054281 -15.19011795 61.02054281 -17.5625 63.0625 C-22.38986896 65.78338069 -26.57425039 65.9285137 -32 65 C-35.645679 63.27271257 -37.61974385 60.55770902 -39.875 57.25 C-41.54250702 52.4327575 -42.05082017 47.88128111 -40.2734375 43.0078125 C-38.19744135 39.07523443 -35.89719766 36.11804221 -32 34 C-25.07048672 32.85686601 -20.74041289 34.21132749 -15 38 C-13.07133957 38.87022638 -13.07133957 38.87022638 -11 39 C-9.0169494 38.04874049 -9.0169494 38.04874049 -7.25 36.5625 C-6.63640625 36.08941406 -6.0228125 35.61632812 -5.390625 35.12890625 C-4.93171875 34.75636719 -4.4728125 34.38382812 -4 34 C-4.72366315 30.65569263 -5.81715496 28.65737657 -8 26 C-6.35 26 -4.7 26 -3 26 C-2.505 24.515 -2.505 24.515 -2 23 C-1.67 23.33 -1.34 23.66 -1 24 C-0.67 16.08 -0.34 8.16 0 0 Z " fill="#E6E6E1" transform="translate(518,371)"/>
<path d="M0 0 C1 1 1 1 1.09765625 3.94140625 C1.08605469 5.13636719 1.07445312 6.33132813 1.0625 7.5625 C1.05347656 8.76003906 1.04445312 9.95757812 1.03515625 11.19140625 C1.02355469 12.11824219 1.01195312 13.04507812 1 14 C-0.08667969 14.02126953 -0.08667969 14.02126953 -1.1953125 14.04296875 C-7.8827873 14.29017853 -7.8827873 14.29017853 -13.625 17.375 C-17.38952921 21.53579544 -17.19378348 25.38734522 -17.31640625 30.73046875 C-17.33718735 31.48088943 -17.35796844 32.23131012 -17.37937927 33.00447083 C-17.44469926 35.39872184 -17.50367792 37.79308139 -17.5625 40.1875 C-17.60570193 41.81186013 -17.64931676 43.43620933 -17.69335938 45.06054688 C-17.80036263 49.04025371 -17.90167937 53.02006958 -18 57 C-20.74505463 58.37252731 -23.00327412 58.13229255 -26.0625 58.125 C-27.68865234 58.12886719 -27.68865234 58.12886719 -29.34765625 58.1328125 C-32 58 -32 58 -33 57 C-33.09365006 55.2507128 -33.11744438 53.49763746 -33.11352539 51.74584961 C-33.11344986 50.62476303 -33.11337433 49.50367645 -33.11329651 48.34861755 C-33.10813522 47.1288472 -33.10297394 45.90907684 -33.09765625 44.65234375 C-33.0962413 43.41078018 -33.09482635 42.16921661 -33.09336853 40.89002991 C-33.08870591 37.58394509 -33.07971497 34.27792854 -33.06866455 30.97186279 C-33.05844827 27.6003885 -33.05387045 24.22890717 -33.04882812 20.85742188 C-33.03777395 14.23825982 -33.0204966 7.61913929 -33 1 C-28.38 1 -23.76 1 -19 1 C-18.67 2.65 -18.34 4.3 -18 6 C-17.13375 5.195625 -16.2675 4.39125 -15.375 3.5625 C-10.74825538 -0.28225962 -5.85734442 -0.27243462 0 0 Z " fill="#2B4E66" transform="translate(248,391)"/>
<path d="M0 0 C2.31243792 -0.02685412 4.6249627 -0.04632841 6.9375 -0.0625 C8.22527344 -0.07410156 9.51304687 -0.08570313 10.83984375 -0.09765625 C14 0 14 0 15 1 C15.10397018 2.67708424 15.13852909 4.35852791 15.14526367 6.03881836 C15.15164352 7.11340805 15.15802338 8.18799774 15.16459656 9.29515076 C15.16570938 10.46489944 15.1668222 11.63464813 15.16796875 12.83984375 C15.17129715 14.03227188 15.17462555 15.22470001 15.17805481 16.45326233 C15.18312916 18.98112603 15.18546298 21.50899645 15.18530273 24.03686523 C15.1874886 27.91726654 15.20563757 31.79738346 15.22460938 35.67773438 C15.22754323 38.12760319 15.22952808 40.57747336 15.23046875 43.02734375 C15.23765427 44.19506821 15.24483978 45.36279266 15.25224304 46.56590271 C15.24916641 47.64364456 15.24608978 48.72138641 15.24291992 49.83178711 C15.24434494 50.78363388 15.24576996 51.73548065 15.24723816 52.71617126 C15 55 15 55 13 57 C10.21484375 57.23046875 10.21484375 57.23046875 6.9375 57.1875 C5.31134766 57.17783203 5.31134766 57.17783203 3.65234375 57.16796875 C1 57 1 57 0 56 C-0.09365006 54.2507128 -0.11744438 52.49763746 -0.11352539 50.74584961 C-0.11344986 49.62476303 -0.11337433 48.50367645 -0.11329651 47.34861755 C-0.10813522 46.1288472 -0.10297394 44.90907684 -0.09765625 43.65234375 C-0.0962413 42.41078018 -0.09482635 41.16921661 -0.09336853 39.89002991 C-0.08870591 36.58394509 -0.07971497 33.27792854 -0.06866455 29.97186279 C-0.05844827 26.6003885 -0.05387045 23.22890717 -0.04882812 19.85742188 C-0.03777395 13.23826225 -0.02101736 6.61913507 0 0 Z " fill="#2B5169" transform="translate(254,392)"/>
<path d="M0 0 C1.67542976 0.28604898 3.34385343 0.61781233 5 1 C6.00566824 4.01700472 6.24396352 6.37814178 6.43310547 9.54125977 C6.50342987 10.67576065 6.57375427 11.81026154 6.64620972 12.97914124 C6.71913239 14.20418869 6.79205505 15.42923615 6.8671875 16.69140625 C7.03194074 19.27022142 7.1973245 21.84899637 7.36328125 24.42773438 C7.6228825 28.50502191 7.87732155 32.58253467 8.11962891 36.66088867 C8.35357116 40.58874906 8.61016305 44.51498687 8.8671875 48.44140625 C8.93606171 49.66847794 9.00493591 50.89554962 9.07589722 52.1598053 C9.15252594 53.29115402 9.22915466 54.42250275 9.30810547 55.58813477 C9.369487 56.5872438 9.43086853 57.58635284 9.49411011 58.61573792 C9.78672855 61.36250644 9.78672855 61.36250644 13 63 C11.02 62.67 9.04 62.34 7 62 C7.33 58.04 7.66 54.08 8 50 C7.34 50 6.68 50 6 50 C6.33 52.97 6.66 55.94 7 59 C5.88625 58.979375 4.7725 58.95875 3.625 58.9375 C0.16784079 58.73619282 0.16784079 58.73619282 -2 60 C-2.495 58.515 -2.495 58.515 -3 57 C-3.33 63.6 -3.66 70.2 -4 77 C-6.13410676 73.79883987 -6.25573812 72.95347635 -6.265625 69.2734375 C-6.26965332 68.33314697 -6.27368164 67.39285645 -6.27783203 66.42407227 C-6.26864746 65.41787842 -6.25946289 64.41168457 -6.25 63.375 C-6.24468262 62.334646 -6.23936523 61.29429199 -6.23388672 60.22241211 C-6.14478052 52.8959654 -5.56707116 45.78496629 -4.57421875 38.53515625 C-3.67862876 31.87068946 -3.22612009 25.16065497 -2.69775391 18.45922852 C-1.33563354 1.33563354 -1.33563354 1.33563354 0 0 Z " fill="#DFE6E3" transform="translate(214,118)"/>
<path d="M0 0 C4 1 4 1 5 2 C5.66 1.34 6.32 0.68 7 0 C7 18.15 7 36.3 7 55 C6.67 55 6.34 55 6 55 C5.67 39.49 5.34 23.98 5 8 C4.01 8.33 3.02 8.66 2 9 C1.07892334 14.45315628 0.86744368 19.6907242 0.90234375 25.21484375 C0.90446617 26.49845543 0.90446617 26.49845543 0.90663147 27.80799866 C0.9121901 30.51786931 0.92473475 33.22765468 0.9375 35.9375 C0.94252035 37.78450401 0.94708232 39.63150932 0.95117188 41.47851562 C0.96214595 45.98570951 0.9793817 50.49284034 1 55 C0.67 55 0.34 55 0 55 C0 51.37 0 47.74 0 44 C-1.44375 44.061875 -2.8875 44.12375 -4.375 44.1875 C-6.8359375 44.29296875 -6.8359375 44.29296875 -9 44 C-11.39112209 40.41331687 -11.23381027 38.83603431 -11.1953125 34.58203125 C-11.18886719 33.32841797 -11.18242187 32.07480469 -11.17578125 30.78320312 C-11.15902344 29.47287109 -11.14226562 28.16253906 -11.125 26.8125 C-11.11496639 25.47722013 -11.1058412 24.14193311 -11.09765625 22.80664062 C-11.07405292 19.53757985 -11.04112594 16.26887972 -11 13 C-7.37 13 -3.74 13 0 13 C0 8.71 0 4.42 0 0 Z " fill="#E5E5E1" transform="translate(208,392)"/>
<path d="M0 0 C4.31457305 0.319598 6.90647504 3.25801197 10 6 C9.44310784 9.53206943 8.39815107 10.92292424 5.5625 13.0625 C-2.24365318 18.54903115 -10.6038144 19.81298112 -20 19 C-20.99 18.67 -21.98 18.34 -23 18 C-23 17.34 -23 16.68 -23 16 C-23.99 16 -24.98 16 -26 16 C-26.66 15.01 -27.32 14.02 -28 13 C-30.05003955 11.80767387 -30.05003955 11.80767387 -32 11 C-27.25 7 -27.25 7 -25 7 C-24.67 6.34 -24.34 5.68 -24 5 C-23.01 5.33 -22.02 5.66 -21 6 C-13.38070569 6.05643922 -7.52258414 4.93816401 -1 1 C-0.67 0.67 -0.34 0.34 0 0 Z " fill="#294C65" transform="translate(447,431)"/>
<path d="M0 0 C0.33 0 0.66 0 1 0 C1 4.29 1 8.58 1 13 C-0.98 13.33 -2.96 13.66 -5 14 C-4.34 14.66 -3.68 15.32 -3 16 C-3.33 16.66 -3.66 17.32 -4 18 C-4.99 18 -5.98 18 -7 18 C-7.33 18.66 -7.66 19.32 -8 20 C-8.515625 19.7525 -9.03125 19.505 -9.5625 19.25 C-13.47536851 18.84868015 -15.71535069 20.93188747 -19 23 C-22.4740831 24.73704155 -26.20156669 24.46041616 -30 24 C-34.42324083 21.78837959 -36.92287449 19.50043861 -39 15 C-39 14.01 -39 13.02 -39 12 C-26.13 12 -13.26 12 0 12 C0 8.04 0 4.08 0 0 Z " fill="#DADCD8" transform="translate(459,413)"/>
<path d="M0 0 C3.53571429 0.53571429 3.53571429 0.53571429 5 2 C5.52156445 5.05995906 5.76232391 8.16136064 6.0625 11.25 C6.15192871 12.15137695 6.24135742 13.05275391 6.33349609 13.98144531 C6.99223648 21.01553784 7.23209842 27.93389262 7 35 C6.34 34.01 5.68 33.02 5 32 C4.67 32.99 4.34 33.98 4 35 C1.9375 36.1875 1.9375 36.1875 0 37 C-0.33 34.69 -0.66 32.38 -1 30 C-1.33 32.64 -1.66 35.28 -2 38 C-2.33 38 -2.66 38 -3 38 C-3.09413601 28.47134358 -3.11281599 18.9566438 -2.625 9.4375 C-2.59414307 8.71828369 -2.56328613 7.99906738 -2.53149414 7.25805664 C-2.23852036 2.23852036 -2.23852036 2.23852036 0 0 Z " fill="#DBE5E2" transform="translate(271,117)"/>
<path d="M0 0 C4.29085983 0.87568568 6.18527073 2.33673797 9.0625 5.625 C9.56937865 8.48147239 9.36045219 10.69513677 9.0625 13.625 C8.4025 13.625 7.7425 13.625 7.0625 13.625 C6.7325 14.615 6.4025 15.605 6.0625 16.625 C2.84445852 18.23402074 -0.45697705 18.22342983 -3.9375 17.625 C-7.18735922 14.94386615 -7.83325014 13.27366582 -8.5 9.125 C-7.9375 5.625 -7.9375 5.625 -5.8125 2.6875 C-2.9375 0.625 -2.9375 0.625 0 0 Z " fill="#2E5065" transform="translate(260.9375,368.375)"/>
<path d="M0 0 C1.65 0 3.3 0 5 0 C7.12826532 9.71150195 8.16034255 19.05876215 8 29 C7.34 28.34 6.68 27.68 6 27 C5.67 28.98 5.34 30.96 5 33 C4.67 33 4.34 33 4 33 C3.67 31.35 3.34 29.7 3 28 C2.34 28 1.68 28 1 28 C0.67 26.02 0.34 24.04 0 22 C-0.33 25.96 -0.66 29.92 -1 34 C-1.33 34 -1.66 34 -2 34 C-2.28189885 22.50479125 -1.47773994 11.39970808 0 0 Z " fill="#D8E2DF" transform="translate(232,118)"/>
<path d="M0 0 C4.14870439 1.75167519 6.45224446 4.31990866 9 8 C9 8.66 9 9.32 9 10 C1.08 10 -6.84 10 -15 10 C-15 5 -15 5 -12.5625 2.1875 C-8.62415713 -0.77092343 -4.73830292 -0.79849179 0 0 Z " fill="#DFE0DC" transform="translate(436,404)"/>
<path d="M0 0 C0.33 0 0.66 0 1 0 C1 25.41 1 50.82 1 77 C-2.96 76.34 -6.92 75.68 -11 75 C-9.7934375 73.9171875 -9.7934375 73.9171875 -8.5625 72.8125 C-5.97286628 69.97021909 -5.09952396 68.78191042 -5 65 C-5.66 64.01 -6.32 63.02 -7 62 C-2.25 61 -2.25 61 0 61 C0 40.87 0 20.74 0 0 Z " fill="#BDC7C9" transform="translate(518,371)"/>
<path d="M0 0 C2.37851717 2.37851717 2 2.75638271 2 6 C5.3 6.33 8.6 6.66 12 7 C12 7.33 12 7.66 12 8 C7.71 8 3.42 8 -1 8 C-1 26.15 -1 44.3 -1 63 C-1.33 63 -1.66 63 -2 63 C-2.33 49.8 -2.66 36.6 -3 23 C-3.66 23.33 -4.32 23.66 -5 24 C-5 23.34 -5 22.68 -5 22 C-5.91523438 22.15597656 -6.83046875 22.31195313 -7.7734375 22.47265625 C-9.55621094 22.76462891 -9.55621094 22.76462891 -11.375 23.0625 C-13.15003906 23.35833984 -13.15003906 23.35833984 -14.9609375 23.66015625 C-18 24 -18 24 -20 23 C-16.57905758 20.71937172 -15.31812778 20.78074993 -11.3125 20.875 C-9.82169922 20.90207031 -9.82169922 20.90207031 -8.30078125 20.9296875 C-7.54152344 20.95289063 -6.78226563 20.97609375 -6 21 C-6.02320313 20.09636719 -6.04640625 19.19273437 -6.0703125 18.26171875 C-6.09738281 16.49248047 -6.09738281 16.49248047 -6.125 14.6875 C-6.14820313 13.51574219 -6.17140625 12.34398437 -6.1953125 11.13671875 C-6 8 -6 8 -4 5 C-4 4.34 -4 3.68 -4 3 C-3.01 2.67 -2.02 2.34 -1 2 C-0.67 1.34 -0.34 0.68 0 0 Z " fill="#C1CBCB" transform="translate(255,384)"/>
<path d="M0 0 C0.33 0 0.66 0 1 0 C1 1.98 1 3.96 1 6 C1.66 6 2.32 6 3 6 C3 5.01 3 4.02 3 3 C3.66 3 4.32 3 5 3 C5.33 5.31 5.66 7.62 6 10 C5.67 10 5.34 10 5 10 C4.34 14.29 3.68 18.58 3 23 C2.01 23.33 1.02 23.66 0 24 C0 33.9 0 43.8 0 54 C-0.33 54 -0.66 54 -1 54 C-1.02526648 46.47030348 -1.04283141 38.9406178 -1.05493164 31.41088867 C-1.0599737 28.84708243 -1.06680714 26.28327909 -1.07543945 23.71948242 C-1.08751064 20.04344979 -1.09322942 16.36745502 -1.09765625 12.69140625 C-1.10281754 11.53725723 -1.10797882 10.38310822 -1.11329651 9.19398499 C-1.11337204 8.13296066 -1.11344757 7.07193634 -1.11352539 5.97875977 C-1.115746 5.03944107 -1.11796661 4.10012238 -1.12025452 3.13233948 C-1 1 -1 1 0 0 Z " fill="#E3E5DE" transform="translate(270,392)"/>
<path d="M0 0 C0.33 0 0.66 0 1 0 C1.66 25.08 2.32 50.16 3 76 C6.63 76.33 10.26 76.66 14 77 C14 77.33 14 77.66 14 78 C11.85423363 78.02685938 9.70837355 78.04633088 7.5625 78.0625 C6.36753906 78.07410156 5.17257812 78.08570313 3.94140625 78.09765625 C1 78 1 78 0 77 C-0.09496708 74.59651714 -0.12558862 72.22189018 -0.11352539 69.81811523 C-0.11367142 69.06694427 -0.11381744 68.31577332 -0.1139679 67.5418396 C-0.11326863 65.04739541 -0.10547564 62.55302497 -0.09765625 60.05859375 C-0.09579212 58.33366436 -0.09436819 56.60873443 -0.09336853 54.88380432 C-0.08954297 50.33487497 -0.07971238 45.78597733 -0.06866455 41.23706055 C-0.05845124 36.59879994 -0.05387108 31.96053423 -0.04882812 27.32226562 C-0.03809014 18.21482978 -0.02101327 9.10741752 0 0 Z " fill="#415E72" transform="translate(347,371)"/>
<path d="M0 0 C0.33 0 0.66 0 1 0 C1.26866528 12.49293564 0.53956314 24.60101826 -1 37 C-2.9375 37.5625 -2.9375 37.5625 -5 38 C-6.71443219 36.28556781 -6.23052967 33.99554759 -6.31640625 31.65234375 C-6.35830078 30.57275391 -6.40019531 29.49316406 -6.44335938 28.38085938 C-6.48267578 27.24455078 -6.52199219 26.10824219 -6.5625 24.9375 C-6.60568359 23.79732422 -6.64886719 22.65714844 -6.69335938 21.48242188 C-6.79982839 18.65507805 -6.90184207 15.82764262 -7 13 C-6.34 13 -5.68 13 -5 13 C-4.34 19.27 -3.68 25.54 -3 32 C-2.31516388 27.89098326 -1.84790577 24.33300974 -1.71875 20.234375 C-1.68136719 19.17992187 -1.64398438 18.12546875 -1.60546875 17.0390625 C-1.53465572 14.83074516 -1.46435025 12.62241149 -1.39453125 10.4140625 C-1.35714844 9.36476562 -1.31976563 8.31546875 -1.28125 7.234375 C-1.25095703 6.27756836 -1.22066406 5.32076172 -1.18945312 4.33496094 C-1 2 -1 2 0 0 Z " fill="#66ABC1" transform="translate(229,142)"/>
<path d="M0 0 C4 1 4 1 5 2 C5.66 1.34 6.32 0.68 7 0 C7 18.15 7 36.3 7 55 C6.67 55 6.34 55 6 55 C5.67 39.49 5.34 23.98 5 8 C4.01 8.33 3.02 8.66 2 9 C1.67 10.65 1.34 12.3 1 14 C-2.96 14 -6.92 14 -11 14 C-11 13.67 -11 13.34 -11 13 C-7.37 13 -3.74 13 0 13 C0 8.71 0 4.42 0 0 Z " fill="#B3BEC1" transform="translate(208,392)"/>
<path d="M0 0 C0.33 0 0.66 0 1 0 C1.90972488 16.67748305 2.11517472 33.29966591 2 50 C7.445 49.505 7.445 49.505 13 49 C13 49.99 13 50.98 13 52 C11.02090602 52.02686553 9.04171029 52.04633375 7.0625 52.0625 C5.96035156 52.07410156 4.85820312 52.08570313 3.72265625 52.09765625 C1 52 1 52 0 51 C-0.09333705 49.40389018 -0.11745372 47.80366572 -0.11352539 46.20483398 C-0.11344986 45.18385117 -0.11337433 44.16286835 -0.11329651 43.11094666 C-0.10813522 42.0005452 -0.10297394 40.89014374 -0.09765625 39.74609375 C-0.0962413 38.61551041 -0.09482635 37.48492706 -0.09336853 36.32008362 C-0.08775019 32.69252935 -0.07519458 29.06503576 -0.0625 25.4375 C-0.05748736 22.98502693 -0.05292405 20.5325529 -0.04882812 18.08007812 C-0.0377748 12.05336455 -0.02101884 6.02668661 0 0 Z " fill="#37566B" transform="translate(215,397)"/>
<path d="M0 0 C0.33 0 0.66 0 1 0 C1 25.08 1 50.16 1 76 C0.67 76 0.34 76 0 76 C-0.495 47.29 -0.495 47.29 -1 18 C-1.66 18 -2.32 18 -3 18 C-3.66 19.32 -4.32 20.64 -5 22 C-5.99 21.34 -6.98 20.68 -8 20 C-7.54625 19.5875 -7.0925 19.175 -6.625 18.75 C-4.94049626 16.93591905 -4.00734029 15.24714373 -3 13 C-2.34 13 -1.68 13 -1 13 C-0.67 8.71 -0.34 4.42 0 0 Z " fill="#CBD4D4" transform="translate(346,371)"/>
<path d="M0 0 C1.32 0 2.64 0 4 0 C5.45081505 2.90163009 5.45004251 5.68680602 5.75390625 8.9140625 C5.81907944 9.60253265 5.88425262 10.29100281 5.95140076 11.00033569 C6.08863048 12.46114026 6.22383405 13.92213636 6.35717773 15.38330078 C6.55984005 17.59595878 6.77063268 19.80773046 6.98242188 22.01953125 C7.1150778 23.44266233 7.24725393 24.86583823 7.37890625 26.2890625 C7.4982251 27.57506348 7.61754395 28.86106445 7.74047852 30.18603516 C8.01007845 34.14811441 8.04379719 38.03070771 8 42 C7.67 42 7.34 42 7 42 C6.66254072 38.77125066 6.33076631 35.5419413 6 32.3125 C5.90460938 31.40048828 5.80921875 30.48847656 5.7109375 29.54882812 C5.62070312 28.66259766 5.53046875 27.77636719 5.4375 26.86328125 C5.35371094 26.05157471 5.26992188 25.23986816 5.18359375 24.40356445 C4.99435945 21.92615534 4.96907548 19.4836252 5 17 C4.34 17 3.68 17 3 17 C3 14.69 3 12.38 3 10 C2.01 10 1.02 10 0 10 C0 11.65 0 13.3 0 15 C-0.33 15 -0.66 15 -1 15 C-1.02685412 12.68756208 -1.04632841 10.3750373 -1.0625 8.0625 C-1.07410156 6.77472656 -1.08570313 5.48695312 -1.09765625 4.16015625 C-1 1 -1 1 0 0 Z " fill="#C8DEE0" transform="translate(252,118)"/>
<path d="M0 0 C0.33 0 0.66 0 1 0 C1.33 1.65 1.66 3.3 2 5 C2.66 5 3.32 5 4 5 C4.02888514 8.14581423 4.04675923 11.29159469 4.0625 14.4375 C4.07087891 15.33533203 4.07925781 16.23316406 4.08789062 17.15820312 C4.09111328 18.01220703 4.09433594 18.86621094 4.09765625 19.74609375 C4.10289307 20.53685303 4.10812988 21.3276123 4.11352539 22.14233398 C4 24 4 24 3 25 C2.76636119 26.84891946 2.58696365 28.70488031 2.4375 30.5625 C2.35371094 31.57441406 2.26992188 32.58632813 2.18359375 33.62890625 C2.09271484 34.80259766 2.09271484 34.80259766 2 36 C1.67 36 1.34 36 1 36 C-0.00013174 31.85758584 -0.11516542 27.98519696 -0.09765625 23.73046875 C-0.0962413 23.04946609 -0.09482635 22.36846344 -0.09336853 21.66682434 C-0.08780298 19.50700353 -0.07525703 17.34728911 -0.0625 15.1875 C-0.05748054 13.71679838 -0.05291841 12.24609512 -0.04882812 10.77539062 C-0.03784488 7.1835596 -0.02060422 3.5917902 0 0 Z " fill="#244760" transform="translate(385,411)"/>
<path d="M0 0 C0.33 0 0.66 0 1 0 C1 2.64 1 5.28 1 8 C0.34 8 -0.32 8 -1 8 C-1 8.99 -1 9.98 -1 11 C-0.01 11 0.98 11 2 11 C0.79618552 13.49361571 -0.45428722 15.68143083 -2 18 C-2.33 17.67 -2.66 17.34 -3 17 C-5.18292774 16.76518307 -7.37203174 16.58636677 -9.5625 16.4375 C-10.76003906 16.35371094 -11.95757812 16.26992188 -13.19140625 16.18359375 C-14.58166016 16.09271484 -14.58166016 16.09271484 -16 16 C-15.34 15.34 -14.68 14.68 -14 14 C-14 13.01 -14 12.02 -14 11 C-13.38511719 10.96261719 -12.77023437 10.92523438 -12.13671875 10.88671875 C-10.92435547 10.78810547 -10.92435547 10.78810547 -9.6875 10.6875 C-8.88699219 10.62949219 -8.08648437 10.57148438 -7.26171875 10.51171875 C-4.61257517 9.9123443 -3.79526159 8.96373189 -2 7 C-1.34 7 -0.68 7 0 7 C0 4.69 0 2.38 0 0 Z " fill="#E1E4E0" transform="translate(270,375)"/>
<path d="M0 0 C0.33 0 0.66 0 1 0 C0.72076008 6.31836436 0.43442922 12.63637461 0.14111328 18.95410156 C0.04993547 20.92215406 -0.04030003 22.89025053 -0.12939453 24.85839844 C-0.24853745 27.46832914 -0.3734207 30.07792074 -0.5 32.6875 C-0.53536865 33.48196533 -0.5707373 34.27643066 -0.60717773 35.0949707 C-0.76632932 38.27486821 -0.98769221 40.96307664 -2 44 C-3.65 43.67 -5.3 43.34 -7 43 C-7 41.02 -7 39.04 -7 37 C-6.01 36.505 -6.01 36.505 -5 36 C-4.67 37.32 -4.34 38.64 -4 40 C-3.95101562 38.90945312 -3.90203125 37.81890625 -3.8515625 36.6953125 C-3.45456412 28.47781359 -2.90942949 20.30311642 -2 12.125 C-1.8755249 10.99408936 -1.8755249 10.99408936 -1.74853516 9.84033203 C-1.36119454 6.49733139 -0.9484983 3.2350567 0 0 Z " fill="#68ABC1" transform="translate(249,136)"/>
<path d="M0 0 C4 2 4 2 5 4 C5.27843054 8.82612943 4.75645727 12.49907826 3 17 C2.67 17 2.34 17 2 17 C1.67 22.61 1.34 28.22 1 34 C0.67 34 0.34 34 0 34 C0 22.78 0 11.56 0 0 Z " fill="#CACFCD" transform="translate(399,413)"/>
<path d="M0 0 C-0.15240609 2.66710654 -0.49364919 4.4505871 -2.33203125 6.4453125 C-6.50625 10 -6.50625 10 -9 10 C-9.33 8.68 -9.66 7.36 -10 6 C-9.34 6 -8.68 6 -8 6 C-8.66 4.35 -9.32 2.7 -10 1 C-3.71428571 -1.42857143 -3.71428571 -1.42857143 0 0 Z " fill="#264C64" transform="translate(514,436)"/>
<path d="M0 0 C1.65 0 3.3 0 5 0 C4.67 0.66 4.34 1.32 4 2 C3.34 1.67 2.68 1.34 2 1 C1.95101562 2.0415625 1.90203125 3.083125 1.8515625 4.15625 C1.34172631 14.17988852 0.37801407 24.05956841 -1 34 C-1.33 34 -1.66 34 -2 34 C-2.28189885 22.50479125 -1.47773994 11.39970808 0 0 Z " fill="#CEE1E3" transform="translate(232,118)"/>
<path d="M0 0 C1.67542976 0.28604898 3.34385343 0.61781233 5 1 C6.28317892 4.84953676 6.06643637 7.94738135 6 12 C5.67 12 5.34 12 5 12 C5 9.69 5 7.38 5 5 C4.34 5 3.68 5 3 5 C2.67 7.97 2.34 10.94 2 14 C-1.22140526 9.1678921 -1.18228719 6.74204646 -1 1 C-0.67 0.67 -0.34 0.34 0 0 Z " fill="#CBDFE1" transform="translate(214,118)"/>
<path d="M0 0 C1.9375 0.8125 1.9375 0.8125 4 2 C4.33 2.99 4.66 3.98 5 5 C4.21625 5.268125 3.4325 5.53625 2.625 5.8125 C-0.28114923 6.84814432 -0.28114923 6.84814432 -2 10 C-2.45772063 12.73872955 -2.45772063 12.73872955 -2.625 15.6875 C-2.69976563 16.68136719 -2.77453125 17.67523438 -2.8515625 18.69921875 C-2.90054688 19.45847656 -2.94953125 20.21773438 -3 21 C-3.66 20.67 -4.32 20.34 -5 20 C-4.94003987 17.22684409 -4.85306688 14.45910294 -4.75 11.6875 C-4.73582031 10.90181641 -4.72164062 10.11613281 -4.70703125 9.30664062 C-4.45812087 3.45724659 -4.45812087 3.45724659 -1.953125 0.95703125 C-1.30859375 0.64121094 -0.6640625 0.32539063 0 0 Z " fill="#CDD3D2" transform="translate(537,428)"/>
<path d="M0 0 C4.29 0 8.58 0 13 0 C13.33 0.66 13.66 1.32 14 2 C13.01 2.33 12.02 2.66 11 3 C11.99 3.66 12.98 4.32 14 5 C13 6 13 6 9.62109375 6.09765625 C8.22652923 6.09098369 6.83198257 6.07902532 5.4375 6.0625 C4.72658203 6.05798828 4.01566406 6.05347656 3.28320312 6.04882812 C1.52209987 6.03700864 -0.23896036 6.01907263 -2 6 C-2 5.34 -2 4.68 -2 4 C0.64 3.67 3.28 3.34 6 3 C6 2.67 6 2.34 6 2 C3.03 1.505 3.03 1.505 0 1 C0 0.67 0 0.34 0 0 Z " fill="#EEE9E0" transform="translate(194,449)"/>
<path d="M0 0 C0.33 0 0.66 0 1 0 C1 5.61 1 11.22 1 17 C-8.27734375 17.09765625 -8.27734375 17.09765625 -11 17 C-12 16 -12 16 -12.0625 13.4375 C-12.041875 12.633125 -12.02125 11.82875 -12 11 C-12.66 11 -13.32 11 -14 11 C-14 11.66 -14 12.32 -14 13 C-15.32 12.34 -16.64 11.68 -18 11 C-17 10 -17 10 -13.9375 9.9375 C-12.4834375 9.9684375 -12.4834375 9.9684375 -11 10 C-10.67 11.32 -10.34 12.64 -10 14 C-6.7 14.33 -3.4 14.66 0 15 C0 10.05 0 5.1 0 0 Z " fill="#3A5B6D" transform="translate(167,432)"/>
<path d="M0 0 C4 1 4 1 6 2 C6 3.65 6 5.3 6 7 C5.360625 7.226875 4.72125 7.45375 4.0625 7.6875 C3.381875 8.120625 2.70125 8.55375 2 9 C1.67 10.65 1.34 12.3 1 14 C-2.96 14 -6.92 14 -11 14 C-11 13.67 -11 13.34 -11 13 C-7.37 13 -3.74 13 0 13 C0 8.71 0 4.42 0 0 Z " fill="#CBD1CF" transform="translate(208,392)"/>
<path d="M0 0 C3 1 3 1 4 3 C8.455 2.505 8.455 2.505 13 2 C11.03922114 4.83223614 9.71007263 6.69821913 6.5 8.0625 C4 8 4 8 1.6875 6.0625 C1.130625 5.381875 0.57375 4.70125 0 4 C0.33 3.67 0.66 3.34 1 3 C0.34 2.34 -0.32 1.68 -1 1 C-0.67 0.67 -0.34 0.34 0 0 Z " fill="#34576C" transform="translate(328,386)"/>
<path d="M0 0 C0.99 0.66 1.98 1.32 3 2 C3.1875 5.125 3.1875 5.125 3 8 C-1.95 9.485 -1.95 9.485 -7 11 C-6.34 9.68 -5.68 8.36 -5 7 C-4.505 5.948125 -4.01 4.89625 -3.5 3.8125 C-2 1 -2 1 0 0 Z " fill="#E0E4D6" transform="translate(436,229)"/>
<path d="M0 0 C0.99 0.33 1.98 0.66 3 1 C2.938125 1.721875 2.87625 2.44375 2.8125 3.1875 C3.03523932 6.52858974 4.1282246 8.27032755 6 11 C0.59510481 9.47987323 -2.98492628 5.72614782 -7 2 C-4.50907189 0.75453595 -3.58919267 1.2232422 -1 2 C-0.67 1.34 -0.34 0.68 0 0 Z " fill="#D7E1CD" transform="translate(351,210)"/>
<path d="M0 0 C2.64 0 5.28 0 8 0 C8.33 2.31 8.66 4.62 9 7 C5.37 7 1.74 7 -2 7 C-1.01 6.34 -0.02 5.68 1 5 C0.67 3.35 0.34 1.7 0 0 Z " fill="#DCDFDC" transform="translate(240,385)"/>
<path d="M0 0 C0.99 0.33 1.98 0.66 3 1 C3.125 4.375 3.125 4.375 3 8 C2.34 8.66 1.68 9.32 1 10 C1 9.34 1 8.68 1 8 C-0.98 8.99 -0.98 8.99 -3 10 C-2.67 8.68 -2.34 7.36 -2 6 C-3.65 6.33 -5.3 6.66 -7 7 C-4.66666667 4.66666667 -2.33333333 2.33333333 0 0 Z " fill="#E1E3DE" transform="translate(342,437)"/>
<path d="M0 0 C1.32 0.99 2.64 1.98 4 3 C3.67 4.32 3.34 5.64 3 7 C3.66 7.33 4.32 7.66 5 8 C2.69 8 0.38 8 -2 8 C-2.66 6.35 -3.32 4.7 -4 3 C-2.68 2.01 -1.36 1.02 0 0 Z " fill="#2A4E68" transform="translate(556,440)"/>
<path d="M0 0 C0.66 0.99 1.32 1.98 2 3 C1.01 3.33 0.02 3.66 -1 4 C-1 15.22 -1 26.44 -1 38 C-1.33 38 -1.66 38 -2 38 C-2.04942899 33.07040878 -2.08573318 28.14096175 -2.10986328 23.21118164 C-2.11992237 21.53407275 -2.13357122 19.85698139 -2.15087891 18.17993164 C-2.17513152 15.76964998 -2.1864839 13.35960014 -2.1953125 10.94921875 C-2.20563507 10.19912033 -2.21595764 9.44902191 -2.22659302 8.67619324 C-2.227408 4.89699221 -2.15057067 3.22585601 0 0 Z " fill="#D0DADC" transform="translate(364,409)"/>
<path d="M0 0 C0.99 1.32 1.98 2.64 3 4 C1.68 6.31 0.36 8.62 -1 11 C-1.33 11 -1.66 11 -2 11 C-2.33 14.63 -2.66 18.26 -3 22 C-3.33 22 -3.66 22 -4 22 C-4.46251848 13.68751509 -4.22550835 7.30032023 0 0 Z " fill="#526E7E" transform="translate(466,404)"/>
<path d="M0 0 C0.99 0.99 1.98 1.98 3 3 C2.875 5.0625 2.875 5.0625 2 7 C-1 9 -1 9 -5 9 C-5 9.66 -5 10.32 -5 11 C-5.66 10.67 -6.32 10.34 -7 10 C-3.535 5.05 -3.535 5.05 0 0 Z " fill="#DDE4D3" transform="translate(420,253)"/>
<path d="M0 0 C3.63 0 7.26 0 11 0 C11 3.63 11 7.26 11 11 C7.37 11 3.74 11 0 11 C0 10.67 0 10.34 0 10 C2.64 9.67 5.28 9.34 8 9 C8.33 6.36 8.66 3.72 9 1 C6.03 1 3.06 1 0 1 C0 0.67 0 0.34 0 0 Z " fill="#22465B" transform="translate(197,393)"/>
<path d="M0 0 C0.33 0 0.66 0 1 0 C1.05382106 2.62527189 1.09358313 5.24944713 1.125 7.875 C1.14175781 8.62136719 1.15851563 9.36773437 1.17578125 10.13671875 C1.1933959 12.09194461 1.10320189 14.04742021 1 16 C0.34 16.66 -0.32 17.32 -1 18 C-2.01125434 13.07013508 -2.56416481 8.02011061 -2 3 C-1.34 2.01 -0.68 1.02 0 0 Z " fill="#54A6C5" transform="translate(245,160)"/>
<path d="M0 0 C2.37851717 2.37851717 2 2.75638271 2 6 C5.3 6.33 8.6 6.66 12 7 C12 7.33 12 7.66 12 8 C9.73044814 8.22185844 7.45926245 8.42705515 5.1875 8.625 C3.92292969 8.74101562 2.65835937 8.85703125 1.35546875 8.9765625 C-2 9 -2 9 -5 7 C-4.6875 5.0625 -4.6875 5.0625 -4 3 C-3.01 2.67 -2.02 2.34 -1 2 C-0.67 1.34 -0.34 0.68 0 0 Z " fill="#C7CDCC" transform="translate(255,384)"/>
<path d="M0 0 C0.33 0 0.66 0 1 0 C1.12910853 6.74233419 0.797837 13.30386804 0 20 C-0.99 20 -1.98 20 -3 20 C-3 16.37 -3 12.74 -3 9 C-2.34 9 -1.68 9 -1 9 C-0.67 6.03 -0.34 3.06 0 0 Z " fill="#EAEAE7" transform="translate(342,156)"/>
<path d="M0 0 C0 0.33 0 0.66 0 1 C-1.08667969 1.14695312 -1.08667969 1.14695312 -2.1953125 1.296875 C-8.73031684 2.2146087 -8.73031684 2.2146087 -14.5 5.1875 C-15.7375 6.0846875 -15.7375 6.0846875 -17 7 C-17.99 6.67 -18.98 6.34 -20 6 C-13.73324315 -0.1930303 -8.60836836 -0.77475315 0 0 Z " fill="#3F5E6D" transform="translate(374,126)"/>
<path d="M0 0 C0.68707555 2.49064888 1 4.37886292 1 7 C1.66 6.01 2.32 5.02 3 4 C3.375 6.0625 3.375 6.0625 3 9 C1.20822891 11.53572282 -0.84238121 13.77174488 -3 16 C-4.49828872 12.11764181 -3.43110582 9.56550712 -2.0625 5.75 C-1.68222656 4.67234375 -1.30195313 3.5946875 -0.91015625 2.484375 C-0.45962891 1.25460938 -0.45962891 1.25460938 0 0 Z " fill="#519FBB" transform="translate(157,100)"/>
<path d="M0 0 C0 0.66 0 1.32 0 2 C0.66 2.33 1.32 2.66 2 3 C1.34 3.66 0.68 4.32 0 5 C-4.0577902 4.6171896 -8.01514422 3.84527244 -12 3 C-12 2.34 -12 1.68 -12 1 C-10.56274129 0.83126522 -9.12518162 0.66509263 -7.6875 0.5 C-6.88699219 0.4071875 -6.08648437 0.314375 -5.26171875 0.21875 C-3 0 -3 0 0 0 Z " fill="#D7E3E5" transform="translate(252,64)"/>
<path d="M0 0 C1.14889133 3.93905597 1.52582695 7.93565958 2 12 C1.01 12.33 0.02 12.66 -1 13 C-1 16.3 -1 19.6 -1 23 C-1.33 23 -1.66 23 -2 23 C-2.05447822 20.47886908 -2.09389852 17.9589415 -2.125 15.4375 C-2.14175781 14.73302734 -2.15851563 14.02855469 -2.17578125 13.30273438 C-2.22022044 8.48108178 -1.52768004 4.57702562 0 0 Z " fill="#6B8490" transform="translate(277,395)"/>
<path d="M0 0 C0.8971875 0.309375 0.8971875 0.309375 1.8125 0.625 C1.4825 1.945 1.1525 3.265 0.8125 4.625 C-4.1375 4.625 -9.0875 4.625 -14.1875 4.625 C-14.1875 4.295 -14.1875 3.965 -14.1875 3.625 C-13.57261719 3.50382813 -12.95773437 3.38265625 -12.32421875 3.2578125 C-11.51597656 3.09023437 -10.70773437 2.92265625 -9.875 2.75 C-9.07449219 2.58757812 -8.27398437 2.42515625 -7.44921875 2.2578125 C-4.46394115 1.42255348 -3.15245384 -0.54042066 0 0 Z " fill="#D0D7D4" transform="translate(380.1875,208.375)"/>
<path d="M0 0 C0.58203125 1.890625 0.58203125 1.890625 1 4 C-0.3125 5.75 -0.3125 5.75 -2 7 C-2.66 7 -3.32 7 -4 7 C-4.12375 7.763125 -4.2475 8.52625 -4.375 9.3125 C-5 12 -5 12 -7 15 C-7.66 15 -8.32 15 -9 15 C-7.58399311 8.86397012 -3.9336625 4.73301638 0 0 Z " fill="#CFDEC4" transform="translate(347,123)"/>
<path d="M0 0 C1.9375 0.375 1.9375 0.375 4 1 C4.33 1.66 4.66 2.32 5 3 C7.02463255 3.65213292 7.02463255 3.65213292 9 4 C9 4.66 9 5.32 9 6 C10.98 6 12.96 6 15 6 C15 6.33 15 6.66 15 7 C10.14755515 7.38819559 6.85985975 7.43747251 2.4375 5.1875 C1.633125 4.465625 0.82875 3.74375 0 3 C0 2.01 0 1.02 0 0 Z " fill="#C5CECF" transform="translate(423,430)"/>
<path d="M0 0 C2.27076842 -0.02699725 4.54162821 -0.04639453 6.8125 -0.0625 C8.07707031 -0.07410156 9.34164062 -0.08570313 10.64453125 -0.09765625 C14.17325536 0.00504236 16.67278824 0.89092941 20 2 C17.69 3.65 15.38 5.3 13 7 C13 5.02 13 3.04 13 1 C8.71 1 4.42 1 0 1 C0 0.67 0 0.34 0 0 Z " fill="#CDD6D8" transform="translate(216,391)"/>
<path d="M0 0 C0.66 0.66 1.32 1.32 2 2 C0.85760183 3.33627775 -0.28901055 4.66895388 -1.4375 6 C-2.07558594 6.7425 -2.71367188 7.485 -3.37109375 8.25 C-3.90863281 8.8275 -4.44617188 9.405 -5 10 C-5.33 10 -5.66 10 -6 10 C-6 8.02 -6 6.04 -6 4 C-4.68 3.67 -3.36 3.34 -2 3 C-2 2.34 -2 1.68 -2 1 C-1.34 0.67 -0.68 0.34 0 0 Z " fill="#DEE0DD" transform="translate(541,401)"/>
<path d="M0 0 C0.33 0 0.66 0 1 0 C1 4.29 1 8.58 1 13 C-2.96 13 -6.92 13 -11 13 C-11.33 11.35 -11.66 9.7 -12 8 C-10.02 8.99 -10.02 8.99 -8 10 C-8 10.66 -8 11.32 -8 12 C-5.36 12 -2.72 12 0 12 C0 8.04 0 4.08 0 0 Z " fill="#3E5C6A" transform="translate(248,392)"/>
<path d="M0 0 C0.33 0.99 0.66 1.98 1 3 C-1.40615652 5.65506927 -3.17959767 6.92164697 -6.78125 7.265625 C-9.53033855 7.25145444 -12.25655321 7.17296687 -15 7 C-15 6.67 -15 6.34 -15 6 C-14.33613281 5.90203125 -13.67226562 5.8040625 -12.98828125 5.703125 C-7.62714274 4.79525337 -3.97963587 3.97963587 0 0 Z " fill="#4B6A7A" transform="translate(153,429)"/>
<path d="M0 0 C-0.33 0.66 -0.66 1.32 -1 2 C-1.99 2 -2.98 2 -4 2 C-4.33 2.66 -4.66 3.32 -5 4 C-5.61875 3.814375 -6.2375 3.62875 -6.875 3.4375 C-9.04160178 2.76313824 -9.04160178 2.76313824 -11 4 C-11 3.01 -11 2.02 -11 1 C-10.01 1 -9.02 1 -8 1 C-8 0.34 -8 -0.32 -8 -1 C-3.375 -2.25 -3.375 -2.25 0 0 Z " fill="#DDDFDC" transform="translate(456,429)"/>
<path d="M0 0 C0 1.65 0 3.3 0 5 C-4.31392226 4.5206753 -6.16569547 3.2542015 -9 0 C-5.93109813 -1.53445094 -3.29905734 -0.54984289 0 0 Z " fill="#DFE2DE" transform="translate(345,378)"/>
<path d="M0 0 C0.33 0 0.66 0 1 0 C1.125 7.625 1.125 7.625 0 11 C-1.65 10.67 -3.3 10.34 -5 10 C-5 8.02 -5 6.04 -5 4 C-4.34 3.67 -3.68 3.34 -3 3 C-2.67 4.32 -2.34 5.64 -2 7 C-1.34 7 -0.68 7 0 7 C0 4.69 0 2.38 0 0 Z " fill="#73B2C4" transform="translate(247,169)"/>
<path d="M0 0 C0.33 0 0.66 0 1 0 C1.55253221 7.35174806 0.51064108 12.511583 -3 19 C-4.0859375 17.203125 -4.0859375 17.203125 -5 15 C-3.625 11.75 -3.625 11.75 -2 9 C-1.34 9 -0.68 9 0 9 C0 6.03 0 3.06 0 0 Z " fill="#355867" transform="translate(390,180)"/>
<path d="M0 0 C2.51850179 1.2592509 4.1230616 2.92196105 6 5 C3.83125748 4.49396008 2.00032373 4.00016187 0 3 C0 3.66 0 4.32 0 5 C-2.97 4.505 -2.97 4.505 -6 4 C-2.60606061 0 -2.60606061 0 0 0 Z " fill="#3C5A6C" transform="translate(449,431)"/>
<path d="M0 0 C0.66 0.66 1.32 1.32 2 2 C1.236875 2.556875 0.47375 3.11375 -0.3125 3.6875 C-2.97735248 5.98051259 -4.22805206 8.01990573 -6 11 C-6.99 11.33 -7.98 11.66 -9 12 C-8.67 10.68 -8.34 9.36 -8 8 C-7.34 8 -6.68 8 -6 8 C-6 7.01 -6 6.02 -6 5 C-5.34 5 -4.68 5 -4 5 C-3.67 4.01 -3.34 3.02 -3 2 C-2.01 1.34 -1.02 0.68 0 0 Z " fill="#27495D" transform="translate(425,403)"/>
<path d="M0 0 C0.99 0.33 1.98 0.66 3 1 C3 1.99 3 2.98 3 4 C3.99 4.33 4.98 4.66 6 5 C3.03 5.66 0.06 6.32 -3 7 C-3 5.68 -3 4.36 -3 3 C-2.34 3 -1.68 3 -1 3 C-0.67 2.01 -0.34 1.02 0 0 Z " fill="#689752" transform="translate(325,321)"/>
<path d="M0 0 C0.66 0.33 1.32 0.66 2 1 C1.8125 2.8125 1.8125 2.8125 1 5 C-1.5625 6.75 -1.5625 6.75 -4 8 C-4.33 6.68 -4.66 5.36 -5 4 C-4.0409375 3.8453125 -4.0409375 3.8453125 -3.0625 3.6875 C-2.381875 3.460625 -1.70125 3.23375 -1 3 C-0.67 2.01 -0.34 1.02 0 0 Z " fill="#38596D" transform="translate(455,436)"/>
<path d="M0 0 C0.33 0 0.66 0 1 0 C1.33 2.31 1.66 4.62 2 7 C1.01 7.66 0.02 8.32 -1 9 C-1.165 9.680625 -1.33 10.36125 -1.5 11.0625 C-1.7475 12.0215625 -1.7475 12.0215625 -2 13 C-2.99 13.33 -3.98 13.66 -5 14 C-3.45730076 9.27934033 -1.92205381 4.58335908 0 0 Z " fill="#CCDBC2" transform="translate(445,206)"/>
<path d="M0 0 C0 4 0 4 -2 6.25 C-2.99 7.11625 -2.99 7.11625 -4 8 C-4.66 7.01 -5.32 6.02 -6 5 C-6.33 4.67 -6.66 4.34 -7 4 C-7 3.34 -7 2.68 -7 2 C-2.25 0 -2.25 0 0 0 Z " fill="#305A6D" transform="translate(383,200)"/>
<path d="M0 0 C4.29 0 8.58 0 13 0 C13.33 0.66 13.66 1.32 14 2 C13.01 2.33 12.02 2.66 11 3 C10.67 3.66 10.34 4.32 10 5 C8.68 4.34 7.36 3.68 6 3 C6 2.67 6 2.34 6 2 C3.03 1.505 3.03 1.505 0 1 C0 0.67 0 0.34 0 0 Z " fill="#DADFDA" transform="translate(194,449)"/>
<path d="M0 0 C2.475 0.495 2.475 0.495 5 1 C5 1.66 5 2.32 5 3 C10.94 3.99 10.94 3.99 17 5 C17 5.33 17 5.66 17 6 C6.24614413 6.86107387 6.24614413 6.86107387 2.3125 3.5625 C0 1 0 1 0 0 Z " fill="#D1DADA" transform="translate(480,430)"/>
<path d="M0 0 C3.41158256 1.13719419 4.11854601 2.04342944 6 5 C6 5.66 6 6.32 6 7 C4.68 6.67 3.36 6.34 2 6 C1.67 7.65 1.34 9.3 1 11 C0.67 11 0.34 11 0 11 C0 7.37 0 3.74 0 0 Z " fill="#DFE1DD" transform="translate(61,402)"/>
<path d="M0 0 C2.47186455 2.96346786 3.66248361 5.54041689 4.6875 9.25 C4.93886719 10.14203125 5.19023437 11.0340625 5.44921875 11.953125 C5.72185547 12.96632812 5.72185547 12.96632812 6 14 C5.34 14 4.68 14 4 14 C3.71125 13.38125 3.4225 12.7625 3.125 12.125 C2.06279958 9.86674235 2.06279958 9.86674235 0 8 C-0.26991906 5.31160615 -0.08737357 2.70858064 0 0 Z " fill="#C5DDE1" transform="translate(160,190)"/>
<path d="M0 0 C1.65 0 3.3 0 5 0 C4.67 0.66 4.34 1.32 4 2 C3.34 1.67 2.68 1.34 2 1 C2 3.31 2 5.62 2 8 C1.34 8 0.68 8 0 8 C0 9.98 0 11.96 0 14 C-0.33 14 -0.66 14 -1 14 C-1.08333357 9.1666528 -0.95261487 4.76307437 0 0 Z " fill="#B7D6DD" transform="translate(232,118)"/>
<path d="M0 0 C4.62 0.66 9.24 1.32 14 2 C14 2.33 14 2.66 14 3 C12.9275 3.144375 11.855 3.28875 10.75 3.4375 C7.21662969 3.87348673 7.21662969 3.87348673 4.75 4.6875 C3 5 3 5 0 3 C0 2.01 0 1.02 0 0 Z " fill="#E2E4DF" transform="translate(152,447)"/>
<path d="M0 0 C4.875 4.75 4.875 4.75 6 7 C4.02 7.33 2.04 7.66 0 8 C-1.125 5.6875 -1.125 5.6875 -2 3 C-1.34 2.01 -0.68 1.02 0 0 Z " fill="#3B5E74" transform="translate(563,436)"/>
<path d="M0 0 C1.98 0 3.96 0 6 0 C4.68 3.3 3.36 6.6 2 10 C1.01 10 0.02 10 -1 10 C-0.34 9.34 0.32 8.68 1 8 C0.65555119 5.52733235 0.65555119 5.52733235 0 3 C0 2.01 0 1.02 0 0 Z " fill="#C6CCCA" transform="translate(512,432)"/>
<path d="M0 0 C8.19256018 -0.63019694 8.19256018 -0.63019694 11.5625 2 C12.036875 2.66 12.51125 3.32 13 4 C12.01 4.66 11.02 5.32 10 6 C9.649375 5.360625 9.29875 4.72125 8.9375 4.0625 C6.22815794 1.17836168 3.84141089 1.2899178 0 1 C0 0.67 0 0.34 0 0 Z " fill="#D1D9D9" transform="translate(369,405)"/>
<path d="M0 0 C0 0.99 0 1.98 0 3 C-4.41062136 4.0257259 -6.92630576 4.03684712 -11 2 C-11 1.67 -11 1.34 -11 1 C-3.375 0 -3.375 0 0 0 Z " fill="#58A6C3" transform="translate(280,320)"/>
<path d="M0 0 C0.66 0.33 1.32 0.66 2 1 C1.360625 1.598125 0.72125 2.19625 0.0625 2.8125 C-2.20310389 4.90810337 -2.20310389 4.90810337 -3 8 C-4.33333333 8.33333333 -5.66666667 8.66666667 -7 9 C-7.33 9.99 -7.66 10.98 -8 12 C-8.66 11.67 -9.32 11.34 -10 11 C-8.52116808 9.35386588 -7.04192523 7.70810092 -5.5625 6.0625 C-4.73878906 5.14597656 -3.91507813 4.22945313 -3.06640625 3.28515625 C-1 1 -1 1 0 0 Z " fill="#5AA2BE" transform="translate(174,78)"/>
<path d="M0 0 C0.66 1.32 1.32 2.64 2 4 C2.66 3.01 3.32 2.02 4 1 C4 2.65 4 4.3 4 6 C6.97 6 9.94 6 13 6 C13 6.33 13 6.66 13 7 C11.02090602 7.02686553 9.04171029 7.04633375 7.0625 7.0625 C5.96035156 7.07410156 4.85820312 7.08570313 3.72265625 7.09765625 C1 7 1 7 0 6 C-0.04080783 4.00041636 -0.04254356 1.99954746 0 0 Z " fill="#526B79" transform="translate(385,442)"/>
<path d="M0 0 C1.32 0.66 2.64 1.32 4 2 C3.01 2.495 3.01 2.495 2 3 C5.3 3.33 8.6 3.66 12 4 C12 4.33 12 4.66 12 5 C10.04174127 5.02694851 8.08337774 5.04637218 6.125 5.0625 C5.03445312 5.07410156 3.94390625 5.08570313 2.8203125 5.09765625 C0 5 0 5 -2 4 C-2 3.34 -2 2.68 -2 2 C-1.34 2 -0.68 2 0 2 C0 1.34 0 0.68 0 0 Z " fill="#3B5C70" transform="translate(196,400)"/>
<path d="M0 0 C0.99 0 1.98 0 3 0 C3.33 1.32 3.66 2.64 4 4 C3.01 4.33 2.02 4.66 1 5 C-0.20882096 7.00016466 -0.20882096 7.00016466 -1 9 C-1.99 8.34 -2.98 7.68 -4 7 C-3.525625 6.5875 -3.05125 6.175 -2.5625 5.75 C-0.83733482 3.817815 -0.43415125 2.51807725 0 0 Z " fill="#D6DBD7" transform="translate(342,384)"/>
<path d="M0 0 C0.33 0 0.66 0 1 0 C1.1080023 2.10304477 1.18558987 4.20766909 1.25 6.3125 C1.29640625 7.48425781 1.3428125 8.65601563 1.390625 9.86328125 C1.26171875 10.89839844 1.1328125 11.93351563 1 13 C-0.32 13.99 -1.64 14.98 -3 16 C-2.01 10.72 -1.02 5.44 0 0 Z " fill="#CFDDC4" transform="translate(458,164)"/>
<path d="M0 0 C2.97 0.495 2.97 0.495 6 1 C5.01 1.66 4.02 2.32 3 3 C2.41312216 6.34613512 2.41312216 6.34613512 2.3125 10.125 C2.24675781 11.40632813 2.18101562 12.68765625 2.11328125 14.0078125 C2.07589844 14.99523437 2.03851563 15.98265625 2 17 C1.67 17 1.34 17 1 17 C0.67 11.39 0.34 5.78 0 0 Z " fill="#71B2CA" transform="translate(249,116)"/>
<path d="M0 0 C0.33 0 0.66 0 1 0 C1 2.64 1 5.28 1 8 C-0.32 8.33 -1.64 8.66 -3 9 C-3.33 7.35 -3.66 5.7 -4 4 C-3.01 3.67 -2.02 3.34 -1 3 C-0.67 2.01 -0.34 1.02 0 0 Z " fill="#3D5E70" transform="translate(269,374)"/>
<path d="M0 0 C0 0.66 0 1.32 0 2 C-7.28571429 6.57142857 -7.28571429 6.57142857 -12 6 C-8.40461874 2.91824463 -4.933456 0 0 0 Z " fill="#739C63" transform="translate(338,77)"/>
<path d="M0 0 C2.475 0.495 2.475 0.495 5 1 C5.33 2.98 5.66 4.96 6 7 C4.68 7 3.36 7 2 7 C1.34 4.69 0.68 2.38 0 0 Z " fill="#D3D9D6" transform="translate(457,406)"/>
<path d="M0 0 C3.26008643 3.16952847 6.22237877 6.39937989 9 10 C7.68 10.33 6.36 10.66 5 11 C4.71125 10.195625 4.4225 9.39125 4.125 8.5625 C3.26737432 5.8673532 3.26737432 5.8673532 1 5 C0.375 2.4375 0.375 2.4375 0 0 Z " fill="#D2E3E6" transform="translate(206,272)"/>
<path d="M0 0 C1.32 0.66 2.64 1.32 4 2 C2.8803014 3.00593243 1.7540588 4.0045849 0.625 5 C-0.00148438 5.556875 -0.62796875 6.11375 -1.2734375 6.6875 C-3 8 -3 8 -5 8 C-4.67 7.01 -4.34 6.02 -4 5 C-3.01 5 -2.02 5 -1 5 C-0.67 3.35 -0.34 1.7 0 0 Z " fill="#DBE5D3" transform="translate(386,212)"/>
<path d="M0 0 C2.31 0 4.62 0 7 0 C6.67 0.66 6.34 1.32 6 2 C6.66 2.66 7.32 3.32 8 4 C4.7 4 1.4 4 -2 4 C-1.34 3.67 -0.68 3.34 0 3 C0 2.01 0 1.02 0 0 Z " fill="#34596E" transform="translate(364,208)"/>
<path d="M0 0 C1.125 1.625 1.125 1.625 2 4 C1.125 7.25 1.125 7.25 0 10 C-0.66 10 -1.32 10 -2 10 C-2.33 10.99 -2.66 11.98 -3 13 C-2.45144652 8.428721 -1.58255197 4.32564205 0 0 Z " fill="#355568" transform="translate(348,142)"/>
<path d="M0 0 C3.63 0 7.26 0 11 0 C11 0.66 11 1.32 11 2 C11.66 2.33 12.32 2.66 13 3 C11.39504433 2.88557539 9.79101881 2.75805306 8.1875 2.625 C7.29417969 2.55539062 6.40085937 2.48578125 5.48046875 2.4140625 C3 2 3 2 0 0 Z " fill="#70AFC8" transform="translate(279,325)"/>
<path d="M0 0 C1.32 0.33 2.64 0.66 4 1 C4 1.99 4 2.98 4 4 C5.65 4.33 7.3 4.66 9 5 C7.02 5.99 7.02 5.99 5 7 C0 1.125 0 1.125 0 0 Z " fill="#D2E4E7" transform="translate(214,204)"/>
<path d="M0 0 C0.66 0 1.32 0 2 0 C0.515 6.435 0.515 6.435 -1 13 C-3 10 -3 10 -2.5390625 7.51953125 C-2.23742187 6.62621094 -1.93578125 5.73289062 -1.625 4.8125 C-1.32851562 3.91144531 -1.03203125 3.01039062 -0.7265625 2.08203125 C-0.48679688 1.39496094 -0.24703125 0.70789063 0 0 Z " fill="#CFE0E6" transform="translate(153,107)"/>
<path d="M0 0 C-1.75 2.0625 -1.75 2.0625 -4 4 C-6.0625 3.8125 -6.0625 3.8125 -8 3 C-8.99 2.67 -9.98 2.34 -11 2 C-7.17010894 0.19769832 -4.21878192 -0.19622241 0 0 Z " fill="#53893B" transform="translate(370,68)"/>
<path d="M0 0 C1.79133978 -0.05391993 3.58313899 -0.09275571 5.375 -0.125 C6.37273437 -0.14820313 7.37046875 -0.17140625 8.3984375 -0.1953125 C11 0 11 0 13 2 C11.02 2.33 9.04 2.66 7 3 C7 2.67 7 2.34 7 2 C4.69 1.67 2.38 1.34 0 1 C0 0.67 0 0.34 0 0 Z " fill="#DDE0DD" transform="translate(309,450)"/>
<path d="M0 0 C0.33 0 0.66 0 1 0 C1.09038099 5.15171623 0.84681133 9.91913204 0 15 C-0.33 15 -0.66 15 -1 15 C-1.91457003 9.43842552 -2.32086397 5.324335 0 0 Z " fill="#63A8C1" transform="translate(268,128)"/>
<path d="M0 0 C0.33 0 0.66 0 1 0 C1 1.65 1 3.3 1 5 C2.32 5.66 3.64 6.32 5 7 C5 7.66 5 8.32 5 9 C2.53199953 7.84826645 0.95216435 6.95216435 -1 5 C-0.625 2.375 -0.625 2.375 0 0 Z " fill="#5BA2BF" transform="translate(264,312)"/>
<path d="M0 0 C2.62374802 5.24749603 3.09534716 8.08847633 3 14 C2.67 14 2.34 14 2 14 C0.4087311 9.126739 -0.21192221 5.19209404 0 0 Z " fill="#CBDEE5" transform="translate(258,292)"/>
<path d="M0 0 C1.31223496 3.93670488 0.24296256 6.12488144 -1 10 C-1.33 10 -1.66 10 -2 10 C-2.1953125 3.9453125 -2.1953125 3.9453125 -2 2 C-1.34 1.34 -0.68 0.68 0 0 Z " fill="#4098B9" transform="translate(260,272)"/>
<path d="M0 0 C0.97591583 3.38317487 0.85856655 5.5657338 0 9 C-0.66 9 -1.32 9 -2 9 C-2.33 10.32 -2.66 11.64 -3 13 C-4 11 -4 11 -3.22265625 8.3984375 C-2.83980469 7.40070313 -2.45695312 6.40296875 -2.0625 5.375 C-1.68222656 4.37210938 -1.30195313 3.36921875 -0.91015625 2.3359375 C-0.60980469 1.56507813 -0.30945313 0.79421875 0 0 Z " fill="#C3D7B8" transform="translate(450,193)"/>
<path d="M0 0 C3 0 3 0 4.6875 1.5 C5.120625 1.995 5.55375 2.49 6 3 C2.98968256 3.93423645 2.13349732 4.04449911 -1 3 C-0.67 2.01 -0.34 1.02 0 0 Z " fill="#35566C" transform="translate(84,411)"/>
<path d="M0 0 C3.3 0 6.6 0 10 0 C9.34 1.32 8.68 2.64 8 4 C5.36 3.34 2.72 2.68 0 2 C0 1.34 0 0.68 0 0 Z " fill="#D1DEC6" transform="translate(313,328)"/>
<path d="M0 0 C2.475 0.495 2.475 0.495 5 1 C6 4 6 4 5.0625 6.1875 C4.5365625 7.0846875 4.5365625 7.0846875 4 8 C3.34 6.02 2.68 4.04 2 2 C1.34 2 0.68 2 0 2 C0 1.34 0 0.68 0 0 Z " fill="#689356" transform="translate(393,128)"/>
<path d="M0 0 C0.66 0.33 1.32 0.66 2 1 C1.01 1.33 0.02 1.66 -1 2 C-2.20882096 4.00016466 -2.20882096 4.00016466 -3 6 C-4.32 5.67 -5.64 5.34 -7 5 C-4.69 3.35 -2.38 1.7 0 0 Z " fill="#D6E5CD" transform="translate(355,117)"/>
<path d="M0 0 C0.99 0.495 0.99 0.495 2 1 C2 1.99 2 2.98 2 4 C2.66 3.01 3.32 2.02 4 1 C4.66 2.32 5.32 3.64 6 5 C5.01 5.495 5.01 5.495 4 6 C1.875 5.0625 1.875 5.0625 0 4 C0 2.68 0 1.36 0 0 Z " fill="#DDE1DB" transform="translate(548,443)"/>
<path d="M0 0 C1.32 0.33 2.64 0.66 4 1 C2.68 2.32 1.36 3.64 0 5 C-0.99 4.67 -1.98 4.34 -3 4 C-2.34 3.67 -1.68 3.34 -1 3 C-0.67 2.01 -0.34 1.02 0 0 Z " fill="#D6DCDC" transform="translate(329,426)"/>
<path d="M0 0 C0.66 0.33 1.32 0.66 2 1 C1.60196439 3.88575819 1.20990931 4.82189513 -1.0625 6.75 C-1.701875 7.1625 -2.34125 7.575 -3 8 C-2.37240135 5.07120629 -1.41377341 2.63904371 0 0 Z " fill="#3B596B" transform="translate(552,408)"/>
<path d="M0 0 C0.99 0.33 1.98 0.66 3 1 C3 3 3 3 1.625 4.625 C0 6 0 6 -2 6 C-2.33 5.01 -2.66 4.02 -3 3 C-2.01 2.01 -1.02 1.02 0 0 Z " fill="#DDDEDA" transform="translate(562,402)"/>
<path d="M0 0 C2.97 1.98 2.97 1.98 6 4 C5.67 4.99 5.34 5.98 5 7 C4.01 6.67 3.02 6.34 2 6 C0.8125 2.9375 0.8125 2.9375 0 0 Z " fill="#D4DCD7" transform="translate(356,207)"/>
<path d="M0 0 C0.66 0.33 1.32 0.66 2 1 C1.67 1.99 1.34 2.98 1 4 C-0.98 4 -2.96 4 -5 4 C-3.36587557 2.29159719 -2.13093906 1.06546953 0 0 Z " fill="#5FA3BF" transform="translate(185,71)"/>
</svg>
